<?xml version="1.0" encoding="utf-8"?>
<!-- Generator: Adobe Illustrator 15.0.0, SVG Export Plug-In . SVG Version: 6.00 Build 0)  -->
<!DOCTYPE svg PUBLIC "-//W3C//DTD SVG 1.1//EN" "http://www.w3.org/Graphics/SVG/1.1/DTD/svg11.dtd">
<svg version="1.1" id="Layer_1" xmlns="http://www.w3.org/2000/svg" xmlns:xlink="http://www.w3.org/1999/xlink" x="0px" y="0px"
	 width="150px" height="99px" viewBox="0 0 150 99" enable-background="new 0 0 150 99" xml:space="preserve">
<g>
	<g>
		<defs>
			<rect id="SVGID_1_" x="25.964" width="100" height="100"/>
		</defs>
		<clipPath id="SVGID_2_">
			<use xlink:href="#SVGID_1_"  overflow="visible"/>
		</clipPath>
		<g clip-path="url(#SVGID_2_)">
			<defs>
				<rect id="SVGID_3_" x="25.964" width="100" height="100"/>
			</defs>
			<clipPath id="SVGID_4_">
				<use xlink:href="#SVGID_3_"  overflow="visible"/>
			</clipPath>
			<g clip-path="url(#SVGID_4_)">
				<defs>
					<path id="SVGID_5_" d="M71.401,5.259c0,0-10.585,6.461-18.359,21.605c-7.776,15.145-9.589,31.808-9.589,31.808
						c-0.263,1.521,0.711,1.454,1.291,1.537c39.925,3.727,77.894-3.468,55.036-34.407C89.246,11.544,79.232,4.913,79.232,4.913
						c-1.066-0.819-2.245-1.123-3.378-1.123C74.035,3.79,72.334,4.573,71.401,5.259"/>
				</defs>
				<clipPath id="SVGID_6_">
					<use xlink:href="#SVGID_5_"  overflow="visible"/>
				</clipPath>
				
					<linearGradient id="SVGID_7_" gradientUnits="userSpaceOnUse" x1="25.4136" y1="100.9414" x2="25.5902" y2="100.9414" gradientTransform="matrix(-150.5164 -282.1272 -282.1272 150.5164 32398.5957 -7966.9624)">
					<stop  offset="0" style="stop-color:#BB181D"/>
					<stop  offset="0.0225" style="stop-color:#BB181D"/>
					<stop  offset="0.1394" style="stop-color:#CA191F"/>
					<stop  offset="0.3346" style="stop-color:#DE1B22"/>
					<stop  offset="0.5338" style="stop-color:#E91C23"/>
					<stop  offset="0.7416" style="stop-color:#ED1C24"/>
					<stop  offset="0.8591" style="stop-color:#E61B23"/>
					<stop  offset="1" style="stop-color:#D71920"/>
				</linearGradient>
				<polygon clip-path="url(#SVGID_6_)" fill="url(#SVGID_7_)" points="60.794,96.931 18.212,17.116 105.036,-29.205 
					147.618,50.609 				"/>
			</g>
			<g clip-path="url(#SVGID_4_)">
				<defs>
					<path id="SVGID_8_" d="M53.931,35.808c0,12.322,9.99,22.313,22.314,22.313c12.323,0,22.313-9.991,22.313-22.313
						c0-12.325-9.99-22.315-22.313-22.315C63.921,13.492,53.931,23.483,53.931,35.808"/>
				</defs>
				<clipPath id="SVGID_9_">
					<use xlink:href="#SVGID_8_"  overflow="visible"/>
				</clipPath>
				
					<radialGradient id="SVGID_10_" cx="25.1055" cy="98.626" r="0.1766" gradientTransform="matrix(298.4184 0 0 -298.4184 -7440.5913 29443.6719)" gradientUnits="userSpaceOnUse">
					<stop  offset="0" style="stop-color:#ED1C24"/>
					<stop  offset="0.3989" style="stop-color:#ED1C24"/>
					<stop  offset="0.5339" style="stop-color:#E91C24"/>
					<stop  offset="0.6566" style="stop-color:#DE1B22"/>
					<stop  offset="0.7744" style="stop-color:#CC1A20"/>
					<stop  offset="0.8887" style="stop-color:#B2181D"/>
					<stop  offset="0.9944" style="stop-color:#931619"/>
					<stop  offset="1" style="stop-color:#931619"/>
				</radialGradient>
				<rect x="53.931" y="13.492" clip-path="url(#SVGID_9_)" fill="url(#SVGID_10_)" width="44.627" height="44.629"/>
			</g>
			<g clip-path="url(#SVGID_4_)">
				<defs>
					<path id="SVGID_11_" d="M53.582,35.808c0,4.146,1.12,8.035,3.072,11.382l0.591-0.373c-1.885-3.239-2.964-7-2.964-11.01
						c0-12.113,9.853-21.965,21.965-21.965c4.096,0,7.933,1.125,11.219,3.085l0.407-0.57c-3.401-2.04-7.379-3.215-11.626-3.215
						C63.748,13.143,53.582,23.311,53.582,35.808"/>
				</defs>
				<clipPath id="SVGID_12_">
					<use xlink:href="#SVGID_11_"  overflow="visible"/>
				</clipPath>
				
					<linearGradient id="SVGID_13_" gradientUnits="userSpaceOnUse" x1="24.8389" y1="98.3223" x2="25.0156" y2="98.3223" gradientTransform="matrix(194.3938 0 0 -194.3938 -4774.9805 19143.4395)">
					<stop  offset="0" style="stop-color:#B31C21"/>
					<stop  offset="0.1348" style="stop-color:#B31C21"/>
					<stop  offset="0.1543" style="stop-color:#BA2425"/>
					<stop  offset="0.2383" style="stop-color:#D24236"/>
					<stop  offset="0.3213" style="stop-color:#E45742"/>
					<stop  offset="0.4019" style="stop-color:#EE6449"/>
					<stop  offset="0.4775" style="stop-color:#F2684B"/>
					<stop  offset="0.5618" style="stop-color:#FAB69C"/>
					<stop  offset="0.6218" style="stop-color:#F4A891"/>
					<stop  offset="0.7351" style="stop-color:#E38374"/>
					<stop  offset="0.8883" style="stop-color:#C84945"/>
					<stop  offset="0.9944" style="stop-color:#B31C21"/>
					<stop  offset="1" style="stop-color:#B31C21"/>
				</linearGradient>
				<rect x="53.582" y="13.143" clip-path="url(#SVGID_12_)" fill="url(#SVGID_13_)" width="34.29" height="34.047"/>
			</g>
			<g clip-path="url(#SVGID_4_)">
				<defs>
					<path id="SVGID_14_" d="M87.464,16.928c6.43,3.836,10.747,10.863,10.747,18.88c0,12.11-9.854,21.964-21.966,21.964
						c-8.101,0-15.192-4.408-19-10.954l-0.591,0.373c3.932,6.741,11.241,11.28,19.592,11.28c12.496,0,22.664-10.166,22.664-22.662
						c0-8.251-4.432-15.485-11.038-19.45L87.464,16.928z"/>
				</defs>
				<clipPath id="SVGID_15_">
					<use xlink:href="#SVGID_14_"  overflow="visible"/>
				</clipPath>
				
					<linearGradient id="SVGID_16_" gradientUnits="userSpaceOnUse" x1="24.4634" y1="99.8516" x2="24.6398" y2="99.8516" gradientTransform="matrix(196.7663 -165.1066 -165.1066 -196.7663 11733.0332 23738.6113)">
					<stop  offset="0" style="stop-color:#B31C21"/>
					<stop  offset="0.0618" style="stop-color:#B31C21"/>
					<stop  offset="0.1307" style="stop-color:#C22E2B"/>
					<stop  offset="0.2689" style="stop-color:#DC4E3D"/>
					<stop  offset="0.3857" style="stop-color:#EC6147"/>
					<stop  offset="0.4663" style="stop-color:#F2684B"/>
					<stop  offset="0.5634" style="stop-color:#ED6248"/>
					<stop  offset="0.6921" style="stop-color:#DF513E"/>
					<stop  offset="0.8379" style="stop-color:#C9362F"/>
					<stop  offset="0.9494" style="stop-color:#B31C21"/>
					<stop  offset="1" style="stop-color:#B31C21"/>
				</linearGradient>
				<polygon clip-path="url(#SVGID_15_)" fill="url(#SVGID_16_)" points="35.917,33.757 81.449,-4.449 119.645,41.07 74.112,79.276 
									"/>
			</g>
			<g clip-path="url(#SVGID_4_)">
				<defs>
					<rect id="SVGID_17_" x="25.964" width="100" height="100"/>
				</defs>
				<clipPath id="SVGID_18_">
					<use xlink:href="#SVGID_17_"  overflow="visible"/>
				</clipPath>
				<g opacity="0.75" clip-path="url(#SVGID_18_)">
					<g>
						<defs>
							<rect id="SVGID_19_" x="74.638" y="25.245" width="21.007" height="20.849"/>
						</defs>
						<clipPath id="SVGID_20_">
							<use xlink:href="#SVGID_19_"  overflow="visible"/>
						</clipPath>
						<g clip-path="url(#SVGID_20_)">
							<defs>
								<rect id="SVGID_21_" x="74.638" y="25.245" width="21.007" height="20.849"/>
							</defs>
							<clipPath id="SVGID_22_">
								<use xlink:href="#SVGID_21_"  overflow="visible"/>
							</clipPath>
							<g transform="matrix(1 0 0 1 2.620688e-006 1.025749e-006)" clip-path="url(#SVGID_22_)">
								
									<image overflow="visible" width="267" height="265" xlink:href="4DBA6596.png"  transform="matrix(0.0787 0 0 0.0787 74.6377 25.2446)">
								</image>
							</g>
						</g>
					</g>
				</g>
				<path clip-path="url(#SVGID_18_)" fill="#FFFFFF" d="M85.605,40.745h-2.319c-0.44,0-0.659-0.594-0.659-0.594l-3.118-9.479
					v13.202h-4.093V27.843c0,0-0.166-1.819,1.357-1.819h3.453c1.275,0,1.648,1.493,1.648,1.493l2.609,8.965l2.658-8.955
					c0,0,0.339-1.503,1.6-1.503h3.36c1.442,0,1.396,1.831,1.396,1.831v16.02h-4.004V30.672L86.33,40.17
					C86.33,40.17,86.152,40.745,85.605,40.745"/>
				<g opacity="0.75" clip-path="url(#SVGID_18_)">
					<g>
						<defs>
							<rect id="SVGID_23_" x="58.193" y="25.245" width="17.703" height="20.849"/>
						</defs>
						<clipPath id="SVGID_24_">
							<use xlink:href="#SVGID_23_"  overflow="visible"/>
						</clipPath>
						<g clip-path="url(#SVGID_24_)">
							<defs>
								<rect id="SVGID_25_" x="58.193" y="25.245" width="17.703" height="20.849"/>
							</defs>
							<clipPath id="SVGID_26_">
								<use xlink:href="#SVGID_25_"  overflow="visible"/>
							</clipPath>
							<g transform="matrix(1 0 0 1 4.277163e-006 1.025749e-006)" clip-path="url(#SVGID_26_)">
								
									<image overflow="visible" width="225" height="265" xlink:href="4DBA659A.png"  transform="matrix(0.0787 0 0 0.0787 58.1929 25.2446)">
								</image>
							</g>
						</g>
					</g>
				</g>
				<path clip-path="url(#SVGID_18_)" fill="#FFFFFF" d="M69.569,34.833c0,0,3.257-0.257,3.257-4.091
					c0-3.068-2.439-4.718-4.841-4.718h-6.963c-2.107,0-2.013,1.887-2.013,1.887v15.964h9.497c2.514,0,5.233-1.324,5.233-4.718
					C73.739,34.741,69.569,34.833,69.569,34.833 M63.132,29.429h4.057c0.921,0,1.679,0.768,1.679,1.994
					c0,1.201-0.778,1.969-1.679,1.969h-1.625c-2.071,0.038-2.428,1.774-2.428,1.774v-1.774h-0.003V29.429z M67.537,40.484h-4.405
					v-4.118h4.405c0.962,0,1.823,0.895,1.823,2.02C69.36,39.845,68.499,40.484,67.537,40.484"/>
				<g clip-path="url(#SVGID_18_)" enable-background="new    ">
					<g>
						<defs>
							<path id="SVGID_27_" d="M53.835,79.103h45.189H53.835z"/>
						</defs>
						<clipPath id="SVGID_28_">
							<use xlink:href="#SVGID_27_"  overflow="visible"/>
						</clipPath>
						<line clip-path="url(#SVGID_28_)" fill="#58595B" x1="53.835" y1="79.103" x2="99.024" y2="79.103"/>
					</g>
				</g>
				<rect x="53.835" y="78.805" clip-path="url(#SVGID_18_)" fill="#58595B" width="45.189" height="0.596"/>
				<path clip-path="url(#SVGID_18_)" fill="#ED1C24" d="M51.64,67.006c0,0-0.903-0.047-1.284,0.563
					c-0.58,1.005-1.703,2.796-1.766,2.905c-0.14-0.24-2.166-3.422-2.166-3.422h-1.862c0,0,2.066,3.327,2.801,4.511
					c0.153,0.247,0.256,0.631,0.256,0.924v2.691h1.847v-2.701c0-0.396,0.092-0.657,0.269-0.917c0.665-1.073,2.819-4.552,2.819-4.552
					L51.64,67.006z"/>
				<path clip-path="url(#SVGID_18_)" fill="#ED1C24" d="M42.912,71.063c0,0,1.456-0.116,1.456-1.865
					c0-1.399-1.09-2.151-2.162-2.151h-3.11c-0.941,0-0.898,0.86-0.898,0.86v7.277h4.242c1.122,0,2.336-0.603,2.336-2.151
					C44.775,71.019,42.912,71.063,42.912,71.063 M40.038,68.603h1.812c0.412,0,0.75,0.351,0.75,0.91c0,0.548-0.348,0.897-0.75,0.897
					h-0.726c-0.924,0.017-1.084,0.809-1.084,0.809V70.41h-0.001V68.603z M42.005,73.644h-1.967v-1.878h1.967
					c0.43,0,0.814,0.408,0.814,0.921C42.819,73.352,42.435,73.644,42.005,73.644"/>
				<path clip-path="url(#SVGID_18_)" fill="#ED1C24" d="M106.285,67.064h-4.017c-0.91,0-0.882,0.76-0.882,0.76v7.359h5.041v-1.565
					h-3.21v-1.654h2.465v-1.333h-2.465v-2.034h3.076L106.285,67.064z"/>
				<path clip-path="url(#SVGID_18_)" fill="#ED1C24" d="M112.623,71.679c0.871-0.286,1.64-0.993,1.64-2.136
					c0-1.358-1.085-2.489-2.914-2.489h-2.589c-0.979,0-0.93,0.923-0.93,0.923v7.207h1.754v-3.242h1.26l1.754,3.242h2.031
					L112.623,71.679z M111.235,70.596h-0.638c-0.806,0-1.013,0.806-1.013,0.806l-0.001-2.869h1.651c0.77,0,1.275,0.361,1.275,0.99
					C112.511,70.15,112.005,70.596,111.235,70.596"/>
				<path clip-path="url(#SVGID_18_)" fill="#ED1C24" d="M97.676,71.368l2.737,3.824h-2.075l-2.621-3.662v3.662h-1.806v-8.169h1.806
					v3.478l2.486-3.478h2.075l-2.588,3.621C97.69,70.645,97.368,70.993,97.676,71.368"/>
				<path clip-path="url(#SVGID_18_)" fill="#ED1C24" d="M56.133,70.871v0.536c0,0.201,0.146,0.589,0.709,0.591h0.667l0.003,1.734
					c0,0-0.581,0.063-0.944,0.063c-1.61,0-2.51-0.974-2.51-2.655c0-1.693,0.886-2.644,2.601-2.644c1.137,0,1.916,0.332,1.916,0.332
					l0.386-1.414l-0.098-0.047c-0.37-0.18-1.156-0.389-2.154-0.389c-2.736,0-4.584,1.661-4.596,4.23
					c0,1.235,0.478,2.301,1.214,3.001c0.77,0.733,1.814,1.09,3.194,1.09c1.001,0,1.987-0.234,2.576-0.453l0.085-0.032v-3.944H56.133
					z"/>
				<path clip-path="url(#SVGID_18_)" fill="#ED1C24" d="M64.199,70.871v0.536c0,0.201,0.146,0.589,0.709,0.591h0.668l0.002,1.734
					c0,0-0.58,0.063-0.944,0.063c-1.61,0-2.509-0.974-2.509-2.655c0-1.693,0.885-2.644,2.601-2.644c1.137,0,1.916,0.332,1.916,0.332
					l0.386-1.414l-0.098-0.047c-0.37-0.18-1.156-0.389-2.154-0.389c-2.736,0-4.583,1.661-4.595,4.23
					c0,1.235,0.477,2.301,1.214,3.001c0.77,0.733,1.814,1.09,3.194,1.09c1,0,1.987-0.234,2.576-0.453l0.085-0.032v-3.944H64.199z"/>
				<path clip-path="url(#SVGID_18_)" fill="#ED1C24" d="M90.29,71.368l2.736,3.824h-2.075l-2.62-3.662v3.662h-1.806v-8.169h1.806
					v3.478l2.485-3.478h2.075l-2.588,3.621C90.304,70.645,89.981,70.993,90.29,71.368"/>
				<path clip-path="url(#SVGID_18_)" fill="#ED1C24" d="M82.748,67.455c-0.151-0.414-0.524-0.482-0.66-0.481h-0.69
					c-0.137,0.008-0.509,0.067-0.661,0.481v-0.001l-2.827,7.733h1.88l0.499-1.46h2.933l0.487,1.46h1.881L82.748,67.455z
					 M80.74,72.371l1.043-3.003l1.009,3.003H80.74z"/>
				<path clip-path="url(#SVGID_18_)" fill="#ED1C24" d="M73.335,73.712h-1.053c-0.2,0-0.299-0.27-0.299-0.27l-1.415-4.303v5.993
					h-1.858v-7.277c0,0-0.076-0.825,0.616-0.825h1.567c0.579,0,0.748,0.677,0.748,0.677l1.185,4.07l1.206-4.065
					c0,0,0.154-0.682,0.727-0.682h1.526c0.654,0,0.634,0.831,0.634,0.831v7.271H75.1V69.14l-1.436,4.312
					C73.664,73.451,73.583,73.712,73.335,73.712"/>
				<path clip-path="url(#SVGID_18_)" fill="#58595B" d="M57.073,91.328c-1.266,0-2.226-0.269-3.046-1.101l1.054-1.055
					c0.527,0.527,1.242,0.703,2.016,0.703c0.96,0,1.476-0.363,1.476-1.031c0-0.293-0.082-0.539-0.258-0.703
					c-0.164-0.152-0.352-0.234-0.738-0.293l-1.007-0.141c-0.715-0.105-1.242-0.328-1.617-0.69c-0.398-0.399-0.598-0.938-0.598-1.641
					c0-1.488,1.101-2.53,2.906-2.53c1.148,0,1.98,0.28,2.694,0.972l-1.031,1.02c-0.527-0.504-1.16-0.574-1.71-0.574
					c-0.867,0-1.289,0.48-1.289,1.055c0,0.211,0.07,0.434,0.246,0.598c0.164,0.152,0.434,0.281,0.773,0.328l0.984,0.141
					c0.762,0.104,1.242,0.316,1.593,0.644c0.445,0.422,0.645,1.031,0.645,1.77C60.166,90.414,58.819,91.328,57.073,91.328"/>
				<polygon clip-path="url(#SVGID_18_)" fill="#58595B" points="65.25,91.258 63.751,88.716 63.106,89.442 63.106,91.258 
					61.583,91.258 61.583,82.916 63.106,82.916 63.106,87.649 65.133,85.154 66.973,85.154 64.793,87.614 67.137,91.258 				"/>
				<path clip-path="url(#SVGID_18_)" fill="#58595B" d="M71.26,91.258V90.73c-0.41,0.41-0.796,0.586-1.5,0.586
					c-0.691,0-1.195-0.176-1.558-0.538c-0.328-0.341-0.503-0.832-0.503-1.371c0-0.973,0.667-1.77,2.085-1.77h1.441v-0.305
					c0-0.667-0.328-0.96-1.137-0.96c-0.586,0-0.855,0.141-1.171,0.504l-0.973-0.949c0.598-0.656,1.184-0.844,2.203-0.844
					c1.711,0,2.601,0.727,2.601,2.155v4.019H71.26z M71.226,88.681h-1.207c-0.551,0-0.855,0.258-0.855,0.691
					c0,0.422,0.281,0.703,0.878,0.703c0.422,0,0.691-0.035,0.961-0.293c0.164-0.152,0.223-0.398,0.223-0.773V88.681z"/>
				<path clip-path="url(#SVGID_18_)" fill="#58595B" d="M76.298,91.258c-1.242,0-1.769-0.878-1.769-1.745V86.49h-0.645v-1.16h0.645
					v-1.805h1.522v1.805h1.078v1.16h-1.078v2.929c0,0.352,0.164,0.551,0.527,0.551h0.551v1.288H76.298z"/>
				<path clip-path="url(#SVGID_18_)" fill="#58595B" d="M80.422,91.258c-1.241,0-1.769-0.878-1.769-1.745V86.49h-0.645v-1.16h0.645
					v-1.805h1.522v1.805h1.078v1.16h-1.078v2.929c0,0.352,0.164,0.551,0.527,0.551h0.551v1.288H80.422z"/>
				<path clip-path="url(#SVGID_18_)" fill="#58595B" d="M86.151,91.258v-0.563c-0.398,0.422-0.961,0.633-1.523,0.633
					c-0.609,0-1.102-0.199-1.44-0.538c-0.493-0.492-0.621-1.066-0.621-1.734v-3.901h1.522v3.69c0,0.832,0.527,1.113,1.008,1.113
					s1.02-0.281,1.02-1.113v-3.69h1.522v6.104H86.151z"/>
				<path clip-path="url(#SVGID_18_)" fill="#58595B" d="M96.449,91.258v-3.69c0-0.831-0.527-1.112-1.008-1.112
					c-0.469,0-1.02,0.281-1.02,1.077v3.726h-1.522v-3.69c0-0.831-0.527-1.112-1.008-1.112s-1.02,0.281-1.02,1.112v3.69H89.35v-6.104
					h1.487v0.563c0.398-0.41,0.961-0.633,1.523-0.633c0.68,0,1.23,0.246,1.617,0.773c0.515-0.539,1.065-0.773,1.827-0.773
					c0.609,0,1.16,0.199,1.5,0.539c0.492,0.492,0.667,1.065,0.667,1.733v3.901H96.449z"/>
			</g>
		</g>
	</g>
</g>
</svg>
