<?xml version="1.0" encoding="utf-8"?>
<!-- Generator: Adobe Illustrator 15.0.0, SVG Export Plug-In . SVG Version: 6.00 Build 0)  -->
<!DOCTYPE svg PUBLIC "-//W3C//DTD SVG 1.1//EN" "http://www.w3.org/Graphics/SVG/1.1/DTD/svg11.dtd">
<svg version="1.1" id="Layer_1" xmlns="http://www.w3.org/2000/svg" xmlns:xlink="http://www.w3.org/1999/xlink" x="0px" y="0px"
	 width="150px" height="99px" viewBox="0 0 150 99" enable-background="new 0 0 150 99" xml:space="preserve">
<g>
	<polygon fill="#221E1F" points="112.232,84.465 42.232,84.465 42.232,14.465 112.232,14.465 112.232,84.465 	"/>
	<polygon fill="#BF311A" stroke="#FFFFFF" stroke-width="4" points="102.437,58.482 45.873,58.482 45.873,18.105 102.437,18.105 
		102.437,58.482 	"/>
	<path fill="#FFFFFF" d="M49.014,41.598h6.235v7.948c0,0.524,0.329,0.786,0.988,0.786c0.658,0,0.988-0.262,0.988-0.785V22.366h7.069
		v26.658c0,3.856-2.67,5.784-8.01,5.784c-1.9,0-3.586-0.463-5.06-1.391c-1.474-0.927-2.21-2.145-2.21-3.655V41.598L49.014,41.598z"
		/>
	<path fill="#FFFFFF" d="M65.678,49.026V28.34c0-4.168,2.704-6.252,8.113-6.252c5.333,0,8,2.069,8,6.208v20.685
		c0,1.868-0.743,3.306-2.229,4.314c-1.486,1.009-3.426,1.513-5.816,1.513C68.367,54.808,65.678,52.881,65.678,49.026L65.678,49.026z
		 M74.907,49.368V27.466c0-0.643-0.383-0.964-1.15-0.964c-0.797,0-1.196,0.322-1.196,0.964v21.902c0,0.643,0.398,0.964,1.196,0.964
		C74.524,50.332,74.907,50.011,74.907,49.368L74.907,49.368z"/>
	<path fill="#FFFFFF" d="M83.247,54.53V22.366h8.323c1.988,0,3.716,0.452,5.182,1.355c1.466,0.904,2.199,2.349,2.199,4.335v4.458
		c0,2.255-1.376,3.845-4.127,4.771c2.9,0.719,4.351,2.268,4.351,4.648v6.243c0,2.125-0.692,3.716-2.075,4.772
		s-3.032,1.583-4.946,1.583H83.247L83.247,54.53z M92.291,33.657v-5.473c0-1.121-0.658-1.682-1.976-1.682v8.859
		C91.633,35.361,92.291,34.793,92.291,33.657L92.291,33.657z M92.291,48.687v-8.153c0-1.123-0.658-1.685-1.976-1.685v11.544
		C91.633,50.394,92.291,49.825,92.291,48.687L92.291,48.687z"/>
	<path fill="#FFFFFF" d="M58.476,63.421L47.503,79.395h6.836c1.049,0,1.855-0.233,2.417-0.702c0.563-0.468,1.062-1.416,1.497-2.846
		l0.406,0.075l-0.788,4.507H44.291v-0.467l10.7-15.522h-5.341c-0.886,0-1.528,0.099-1.926,0.295s-0.702,0.48-0.911,0.853
		c-0.209,0.372-0.4,1.069-0.572,2.09h-0.467l0.34-4.256H58.476L58.476,63.421z"/>
	<path fill="#FFFFFF" d="M68.121,63.035c2.166,0,4.043,0.837,5.631,2.514c1.587,1.676,2.382,3.768,2.382,6.275
		c0,2.583-0.801,4.728-2.4,6.433c-1.6,1.705-3.537,2.558-5.809,2.558c-2.298,0-4.228-0.832-5.791-2.495
		c-1.563-1.664-2.345-3.815-2.345-6.457c0-2.7,0.902-4.903,2.708-6.608C64.063,63.774,65.938,63.035,68.121,63.035L68.121,63.035z
		 M67.887,63.945c-1.497,0-2.696,0.564-3.601,1.692c-1.126,1.404-1.689,3.461-1.689,6.169c0,2.775,0.583,4.911,1.751,6.407
		c0.896,1.137,2.08,1.706,3.551,1.706c1.57,0,2.867-0.623,3.89-1.869c1.023-1.245,1.535-3.21,1.535-5.893
		c0-2.909-0.563-5.078-1.689-6.508C70.731,64.514,69.481,63.945,67.887,63.945L67.887,63.945z"/>
	<path fill="#FFFFFF" d="M75.852,63.421h4.502l10.233,12.768v-9.82c0-1.045-0.114-1.698-0.344-1.957
		c-0.304-0.352-0.783-0.527-1.439-0.527h-0.578v-0.463h5.804v0.463h-0.591c-0.705,0-1.205,0.218-1.5,0.652
		c-0.181,0.268-0.271,0.878-0.271,1.832v14.337h-0.442l-11.01-13.702V77.48c0,1.046,0.11,1.699,0.332,1.958
		c0.312,0.352,0.791,0.527,1.438,0.527h0.591v0.463h-5.804v-0.463h0.578c0.714,0,1.218-0.218,1.513-0.652
		c0.181-0.268,0.271-0.879,0.271-1.833V65.658c-0.483-0.579-0.851-0.961-1.101-1.146s-0.616-0.356-1.101-0.516
		c-0.237-0.076-0.599-0.113-1.082-0.113V63.421L75.852,63.421z"/>
	<path fill="#FFFFFF" d="M99.925,64.347v6.714h3.689c0.952,0,1.589-0.146,1.909-0.439c0.427-0.384,0.665-1.061,0.714-2.03h0.448
		v5.927h-0.448c-0.115-0.827-0.229-1.357-0.345-1.592c-0.147-0.292-0.39-0.521-0.727-0.689c-0.337-0.166-0.854-0.25-1.552-0.25
		h-3.689v5.609c0,0.753,0.033,1.211,0.099,1.374s0.181,0.292,0.345,0.389s0.476,0.145,0.936,0.145h2.831
		c0.944,0,1.629-0.067,2.056-0.201c0.427-0.133,0.837-0.396,1.23-0.789c0.51-0.519,1.03-1.3,1.564-2.344h0.493l-1.44,4.26H95.172
		v-0.463h0.592c0.395,0,0.769-0.097,1.122-0.29c0.263-0.135,0.441-0.336,0.536-0.605c0.095-0.269,0.142-0.819,0.142-1.651V66.384
		c0-1.08-0.106-1.746-0.32-1.998c-0.296-0.335-0.789-0.502-1.479-0.502h-0.592v-0.463h12.887l0.17,3.734h-0.479
		c-0.172-0.898-0.363-1.516-0.572-1.852c-0.21-0.336-0.521-0.592-0.931-0.769c-0.329-0.126-0.908-0.188-1.738-0.188H99.925
		L99.925,64.347z"/>
</g>
</svg>
