<?xml version="1.0" encoding="utf-8"?>
<!-- Generator: Adobe Illustrator 15.0.0, SVG Export Plug-In . SVG Version: 6.00 Build 0)  -->
<!DOCTYPE svg PUBLIC "-//W3C//DTD SVG 1.1//EN" "http://www.w3.org/Graphics/SVG/1.1/DTD/svg11.dtd">
<svg version="1.1" id="Layer_1" xmlns="http://www.w3.org/2000/svg" xmlns:xlink="http://www.w3.org/1999/xlink" x="0px" y="0px"
	 width="150px" height="99px" viewBox="0 0 150 99" enable-background="new 0 0 150 99" xml:space="preserve">
<g>
	<g opacity="0.8">
		<path fill="#245858" stroke="#245858" stroke-width="0.25" d="M25.062,33.749L13.773,45.517l12.366,11.794h-2.317L11.483,45.543
			v11.768H9.654V33.749h1.829v11.727l11.306-11.727H25.062z"/>
		<path fill="#245858" stroke="#245858" stroke-width="0.25" d="M38.178,33.442c3.479,0,6.435,1.174,8.858,3.523
			c2.421,2.339,3.638,5.2,3.638,8.578c0,3.357-1.217,6.215-3.638,8.561c-2.423,2.343-5.378,3.519-8.858,3.519
			c-3.47,0-6.412-1.176-8.831-3.519c-2.41-2.346-3.606-5.203-3.606-8.561c0-3.378,1.197-6.238,3.606-8.578
			C31.766,34.616,34.708,33.442,38.178,33.442z M38.244,55.937c2.937,0,5.411-1.005,7.426-3.015c2.014-2.015,3.028-4.47,3.028-7.379
			c0-2.929-1.014-5.394-3.028-7.396c-2.015-2.015-4.489-3.009-7.426-3.009c-2.944,0-5.431,0.994-7.473,3.009
			c-2.041,2.002-3.062,4.467-3.062,7.396c0,2.909,1.021,5.364,3.062,7.379C32.813,54.932,35.299,55.937,38.244,55.937z"/>
		<path fill="#245858" stroke="#245858" stroke-width="0.25" d="M76.361,33.749v23.562h-1.499L56.95,36.71v20.601h-1.826V33.749
			h1.542l17.875,20.596V33.749H76.361z"/>
		<path fill="#245858" stroke="#245858" stroke-width="0.25" d="M98.719,33.749v1.522H89.87v22.04h-1.842v-22.04h-8.829v-1.522
			H98.719z"/>
		<path fill="#245858" stroke="#245858" stroke-width="0.25" d="M118.978,33.749h1.82v12.852c0,3.522-0.917,6.237-2.75,8.153
			c-1.836,1.902-4.211,2.868-7.128,2.868c-2.895,0-5.255-0.954-7.09-2.834c-1.828-1.896-2.745-4.479-2.745-7.765V33.749h1.836v13.21
			c0,2.812,0.739,5.006,2.226,6.592c1.488,1.589,3.412,2.386,5.773,2.386c2.391,0,4.32-0.805,5.82-2.414
			c1.492-1.601,2.237-3.866,2.237-6.818V33.749z"/>
		<path fill="#245858" stroke="#245858" stroke-width="0.25" d="M125.716,33.749h6.044c2.535,0,4.464,0.543,5.809,1.646
			c1.34,1.096,1.994,2.573,1.994,4.447c0,2.718-1.48,4.631-4.473,5.729c0.779,0.369,1.821,1.573,3.139,3.597l5.324,8.144h-2.16
			l-4.1-6.454c-1.383-2.164-2.443-3.506-3.214-4.046c-0.763-0.535-1.87-0.801-3.348-0.801h-3.196v11.302h-1.819V33.749z
			 M127.535,35.271v9.226h3.912c1.998,0,3.532-0.398,4.582-1.208c1.047-0.811,1.57-1.936,1.57-3.418
			c0-1.452-0.525-2.577-1.599-3.389c-1.074-0.813-2.604-1.209-4.609-1.209H127.535z"/>
	</g>
	<g>
		<path fill="#919195" d="M16.128,64.786v6.323h-0.796v-1.093c-0.343,0.417-0.723,0.738-1.152,0.938
			c-0.418,0.203-0.882,0.32-1.389,0.32c-0.895,0-1.654-0.332-2.29-0.979c-0.634-0.65-0.949-1.439-0.949-2.37
			c0-0.909,0.318-1.686,0.955-2.33c0.646-0.646,1.412-0.979,2.307-0.979c0.518,0,0.989,0.129,1.413,0.344
			c0.414,0.212,0.789,0.554,1.105,0.982v-1.158H16.128z M12.881,65.402c-0.452,0-0.874,0.129-1.254,0.346
			c-0.382,0.216-0.682,0.534-0.913,0.939c-0.221,0.403-0.342,0.813-0.342,1.271c0,0.452,0.123,0.862,0.345,1.27
			c0.232,0.409,0.536,0.733,0.919,0.955c0.383,0.221,0.799,0.328,1.238,0.328c0.441,0,0.868-0.105,1.267-0.326
			c0.399-0.218,0.702-0.528,0.92-0.908c0.215-0.383,0.32-0.819,0.32-1.292c0-0.743-0.236-1.347-0.722-1.833
			C14.175,65.662,13.583,65.402,12.881,65.402z"/>
		<path fill="#919195" d="M17.649,64.786h0.834v0.925c0.249-0.359,0.51-0.633,0.785-0.822c0.268-0.166,0.559-0.271,0.852-0.271
			c0.229,0,0.465,0.083,0.72,0.23l-0.419,0.684c-0.172-0.082-0.311-0.122-0.434-0.122c-0.263,0-0.525,0.122-0.785,0.343
			c-0.25,0.217-0.442,0.564-0.573,1.037c-0.097,0.353-0.147,1.093-0.147,2.175v2.145h-0.834V64.786z"/>
		<path fill="#919195" d="M21.531,62.356h0.813v4.989l2.932-2.56h1.19l-3.468,3.013l3.667,3.311h-1.138l-3.182-2.839v2.839h-0.813
			V62.356z"/>
		<path fill="#919195" d="M27.382,64.786h0.813v6.323h-0.813V64.786z"/>
		<path fill="#919195" d="M30.589,62.441h0.817v2.345h1.286v0.711h-1.286v5.612h-0.817v-5.612H29.48v-0.711h1.109V62.441z"/>
		<path fill="#919195" d="M39.229,69.014l0.689,0.353c-0.229,0.452-0.487,0.8-0.777,1.073c-0.3,0.272-0.631,0.469-0.996,0.612
			c-0.364,0.145-0.785,0.224-1.251,0.224c-1.028,0-1.837-0.35-2.417-1.028c-0.58-0.659-0.875-1.438-0.875-2.28
			c0-0.803,0.254-1.52,0.741-2.149c0.628-0.8,1.461-1.199,2.507-1.199c1.072,0,1.933,0.411,2.575,1.231
			c0.457,0.587,0.694,1.297,0.704,2.168h-5.682c0.008,0.729,0.248,1.322,0.701,1.807c0.453,0.457,1.007,0.687,1.676,0.687
			c0.321,0,0.634-0.042,0.942-0.15c0.301-0.117,0.56-0.26,0.776-0.455C38.758,69.72,38.982,69.429,39.229,69.014z M39.229,67.313
			c-0.105-0.441-0.266-0.779-0.466-1.04c-0.209-0.259-0.486-0.479-0.829-0.621c-0.344-0.164-0.696-0.251-1.069-0.251
			c-0.625,0-1.16,0.204-1.603,0.604c-0.325,0.296-0.569,0.719-0.741,1.309H39.229z"/>
		<path fill="#919195" d="M41.641,62.356h0.807v4.989l2.928-2.56h1.193l-3.472,3.013l3.677,3.311h-1.138l-3.188-2.839v2.839h-0.807
			V62.356z"/>
		<path fill="#919195" d="M48.32,62.441h0.812v2.345h1.285v0.711h-1.285v5.612H48.32v-5.612h-1.112v-0.711h1.112V62.441z"/>
		<path fill="#919195" d="M51.531,64.786h0.818v2.961c0,0.708,0.034,1.198,0.114,1.473c0.114,0.388,0.341,0.699,0.668,0.919
			c0.327,0.234,0.717,0.348,1.172,0.348c0.453,0,0.834-0.113,1.15-0.338c0.323-0.213,0.535-0.506,0.655-0.855
			c0.082-0.239,0.129-0.756,0.129-1.546v-2.961h0.828v3.102c0,0.877-0.107,1.533-0.305,1.962c-0.201,0.449-0.514,0.787-0.916,1.047
			c-0.411,0.258-0.918,0.379-1.539,0.379c-0.62,0-1.13-0.121-1.537-0.379c-0.415-0.26-0.719-0.6-0.924-1.047
			c-0.204-0.446-0.313-1.12-0.313-2.018V64.786z"/>
		<path fill="#919195" d="M58.562,64.786h0.825v0.925c0.252-0.359,0.514-0.633,0.783-0.822c0.278-0.166,0.57-0.271,0.862-0.271
			c0.229,0,0.466,0.083,0.721,0.23l-0.42,0.684c-0.178-0.082-0.32-0.122-0.434-0.122c-0.272,0-0.535,0.122-0.786,0.343
			c-0.249,0.217-0.441,0.564-0.57,1.037c-0.101,0.353-0.156,1.093-0.156,2.175v2.145h-0.825V64.786z"/>
		<path fill="#919195" d="M68.036,66.447v-2.525h0.795v2.525h2.535v0.785h-2.535v2.519h-0.795v-2.519h-2.537v-0.785H68.036z"/>
		<path fill="#919195" d="M76.229,62.356h0.814v4.989l2.931-2.56h1.197l-3.484,3.013l3.675,3.311h-1.137l-3.182-2.839v2.839h-0.814
			V62.356z"/>
		<path fill="#919195" d="M85.195,64.618c0.976,0,1.77,0.367,2.416,1.058c0.583,0.642,0.878,1.419,0.878,2.291
			c0,0.879-0.314,1.646-0.922,2.309c-0.611,0.66-1.399,1-2.372,1c-0.979,0-1.771-0.34-2.38-1c-0.608-0.662-0.923-1.43-0.923-2.309
			c0-0.866,0.295-1.645,0.876-2.283C83.415,64.987,84.209,64.618,85.195,64.618z M85.189,65.415c-0.678,0-1.247,0.247-1.749,0.765
			c-0.479,0.496-0.718,1.091-0.718,1.809c0,0.446,0.107,0.876,0.322,1.272c0.237,0.394,0.519,0.706,0.902,0.915
			c0.387,0.206,0.785,0.329,1.242,0.329c0.458,0,0.856-0.123,1.243-0.329c0.384-0.209,0.665-0.521,0.903-0.915
			c0.216-0.396,0.322-0.826,0.322-1.272c0-0.718-0.241-1.313-0.723-1.809C86.433,65.662,85.864,65.415,85.189,65.415z"/>
		<path fill="#919195" d="M89.983,64.786H90.8v1.138c0.336-0.431,0.689-0.767,1.085-0.974c0.396-0.206,0.829-0.332,1.285-0.332
			c0.466,0,0.888,0.129,1.251,0.377c0.381,0.235,0.648,0.548,0.813,0.957c0.182,0.407,0.263,1.036,0.263,1.909v3.248h-0.818v-3.015
			c0-0.73-0.014-1.22-0.083-1.459c-0.089-0.423-0.278-0.726-0.546-0.95c-0.267-0.202-0.61-0.303-1.045-0.303
			c-0.486,0-0.936,0.149-1.324,0.482c-0.388,0.32-0.643,0.718-0.766,1.212c-0.069,0.3-0.114,0.883-0.114,1.722v2.311h-0.816V64.786z
			"/>
		<path fill="#919195" d="M100.424,65.483l-0.521,0.542c-0.441-0.427-0.872-0.629-1.291-0.629c-0.263,0-0.482,0.081-0.663,0.261
			c-0.194,0.16-0.282,0.376-0.282,0.602c0,0.197,0.069,0.403,0.228,0.582c0.16,0.194,0.475,0.41,0.972,0.665
			c0.612,0.32,1.027,0.629,1.238,0.905c0.204,0.297,0.328,0.641,0.328,1.004c0,0.518-0.189,0.958-0.55,1.318
			c-0.363,0.354-0.826,0.542-1.377,0.542c-0.358,0-0.7-0.091-1.042-0.247c-0.322-0.15-0.599-0.382-0.823-0.655l0.523-0.576
			c0.398,0.459,0.846,0.708,1.309,0.708c0.329,0,0.608-0.119,0.835-0.32c0.222-0.203,0.344-0.465,0.344-0.729
			c0-0.249-0.076-0.447-0.232-0.639c-0.152-0.162-0.486-0.403-1.017-0.667c-0.581-0.286-0.968-0.582-1.162-0.871
			c-0.206-0.292-0.316-0.608-0.316-0.973c0-0.494,0.17-0.893,0.502-1.197c0.322-0.328,0.739-0.49,1.234-0.49
			C99.25,64.618,99.825,64.906,100.424,65.483z"/>
		<path fill="#919195" d="M102.561,62.441h0.818v2.345h1.285v0.711h-1.285v5.612h-0.818v-5.612h-1.099v-0.711h1.099V62.441z"/>
		<path fill="#919195" d="M105.575,64.786h0.838v0.925c0.243-0.359,0.506-0.633,0.781-0.822c0.278-0.166,0.568-0.271,0.852-0.271
			c0.239,0,0.477,0.083,0.731,0.23l-0.431,0.684c-0.178-0.082-0.321-0.122-0.434-0.122c-0.274,0-0.535,0.122-0.786,0.343
			c-0.249,0.217-0.43,0.564-0.562,1.037c-0.11,0.353-0.152,1.093-0.152,2.175v2.145h-0.838V64.786z"/>
		<path fill="#919195" d="M109.351,64.786h0.818v2.961c0,0.708,0.045,1.198,0.112,1.473c0.115,0.388,0.352,0.699,0.67,0.919
			c0.338,0.234,0.728,0.348,1.169,0.348c0.464,0,0.848-0.113,1.15-0.338c0.324-0.213,0.537-0.506,0.654-0.855
			c0.095-0.239,0.122-0.756,0.122-1.546v-2.961h0.836v3.102c0,0.877-0.097,1.533-0.312,1.962c-0.194,0.449-0.507,0.787-0.919,1.047
			c-0.393,0.258-0.916,0.379-1.528,0.379c-0.609,0-1.121-0.121-1.538-0.379c-0.415-0.26-0.729-0.6-0.925-1.047
			c-0.197-0.446-0.311-1.12-0.311-2.018V64.786z"/>
		<path fill="#919195" d="M116.68,62.356h0.816v4.989l2.938-2.56h1.196l-3.483,3.013l3.677,3.311h-1.139l-3.188-2.839v2.839h-0.816
			V62.356z"/>
		<path fill="#919195" d="M125.826,65.483l-0.521,0.542c-0.42-0.427-0.851-0.629-1.27-0.629c-0.265,0-0.484,0.081-0.682,0.261
			c-0.177,0.16-0.28,0.376-0.28,0.602c0,0.197,0.086,0.403,0.244,0.582c0.149,0.194,0.473,0.41,0.967,0.665
			c0.618,0.32,1.015,0.629,1.241,0.905c0.206,0.297,0.307,0.641,0.307,1.004c0,0.518-0.166,0.958-0.533,1.318
			c-0.374,0.354-0.819,0.542-1.37,0.542c-0.36,0-0.724-0.091-1.042-0.247c-0.337-0.15-0.599-0.382-0.83-0.655l0.51-0.576
			c0.419,0.459,0.864,0.708,1.322,0.708c0.336,0,0.615-0.119,0.84-0.32c0.224-0.203,0.335-0.465,0.335-0.729
			c0-0.249-0.065-0.447-0.222-0.639c-0.154-0.162-0.488-0.403-1.019-0.667c-0.579-0.286-0.968-0.582-1.162-0.871
			c-0.219-0.292-0.314-0.608-0.314-0.973c0-0.494,0.168-0.893,0.484-1.197c0.34-0.328,0.757-0.49,1.252-0.49
			C124.652,64.618,125.247,64.906,125.826,65.483z"/>
		<path fill="#919195" d="M127.174,64.786h0.83v7.281c0,0.531-0.089,0.916-0.292,1.155c-0.189,0.239-0.451,0.357-0.785,0.357
			c-0.278,0-0.581-0.066-0.931-0.196v-0.734c0.218,0.11,0.413,0.176,0.595,0.176c0.214,0,0.384-0.097,0.49-0.275
			c0.054-0.114,0.093-0.354,0.093-0.736V64.786z"/>
		<path fill="#919195" d="M132.681,64.618c0.982,0,1.778,0.367,2.43,1.058c0.569,0.642,0.864,1.419,0.864,2.291
			c0,0.879-0.314,1.646-0.922,2.309c-0.608,0.66-1.399,1-2.372,1c-0.972,0-1.757-0.34-2.38-1c-0.608-0.662-0.923-1.43-0.923-2.309
			c0-0.866,0.295-1.645,0.886-2.283C130.9,64.987,131.709,64.618,132.681,64.618z M132.675,65.415c-0.678,0-1.247,0.247-1.749,0.765
			c-0.477,0.496-0.718,1.091-0.718,1.809c0,0.446,0.105,0.876,0.325,1.272c0.232,0.394,0.523,0.706,0.912,0.915
			c0.374,0.206,0.787,0.329,1.229,0.329c0.461,0,0.866-0.123,1.252-0.329c0.375-0.209,0.661-0.521,0.895-0.915
			c0.216-0.396,0.321-0.826,0.321-1.272c0-0.718-0.239-1.313-0.722-1.809C133.936,65.662,133.35,65.415,132.675,65.415z"/>
		<path fill="#919195" d="M137.467,64.786h0.816v1.138c0.336-0.431,0.691-0.767,1.087-0.974c0.394-0.206,0.832-0.332,1.283-0.332
			c0.478,0,0.888,0.129,1.263,0.377c0.371,0.235,0.643,0.548,0.801,0.957c0.182,0.407,0.263,1.036,0.263,1.909v3.248h-0.802v-3.015
			c0-0.73-0.03-1.22-0.1-1.459c-0.089-0.423-0.276-0.726-0.546-0.95c-0.267-0.202-0.608-0.303-1.045-0.303
			c-0.486,0-0.927,0.149-1.317,0.482c-0.395,0.32-0.649,0.718-0.772,1.212c-0.069,0.3-0.114,0.883-0.114,1.722v2.311h-0.816V64.786z
			"/>
	</g>
</g>
</svg>
