<?xml version="1.0" encoding="utf-8"?>
<!-- Generator: Adobe Illustrator 15.0.0, SVG Export Plug-In . SVG Version: 6.00 Build 0)  -->
<!DOCTYPE svg PUBLIC "-//W3C//DTD SVG 1.1//EN" "http://www.w3.org/Graphics/SVG/1.1/DTD/svg11.dtd">
<svg version="1.1" id="Layer_1" xmlns="http://www.w3.org/2000/svg" xmlns:xlink="http://www.w3.org/1999/xlink" x="0px" y="0px"
	 width="150px" height="99px" viewBox="0 0 150 99" enable-background="new 0 0 150 99" xml:space="preserve">
<g>
	<path fill="#004FA2" d="M52.696,64.847v-8.623h1.178l4.539,6.774v-6.774h1.102v8.623h-1.178l-4.539-6.773v6.773H52.696z"/>
	<path fill="#004FA2" d="M72.462,62.929c-0.196,0.654-0.529,1.159-0.998,1.517c-0.47,0.356-1.053,0.535-1.75,0.535
		c-0.498,0-0.933-0.095-1.307-0.282c-0.374-0.189-0.711-0.482-1.013-0.882c-0.407,0.399-0.819,0.692-1.235,0.882
		c-0.417,0.188-0.866,0.282-1.348,0.282c-0.673,0-1.197-0.174-1.571-0.52c-0.374-0.346-0.56-0.767-0.56-1.264
		c0-0.337,0.096-0.653,0.287-0.947c0.192-0.295,0.459-0.52,0.803-0.672c0.343-0.153,0.89-0.277,1.643-0.375
		c0.581-0.078,1.07-0.175,1.465-0.288c0.003-0.098,0.006-0.179,0.006-0.241c0-0.493-0.102-0.84-0.304-1.037
		c-0.203-0.199-0.558-0.298-1.063-0.298c-0.336,0-0.62,0.041-0.852,0.124c-0.232,0.083-0.403,0.2-0.513,0.353
		s-0.202,0.395-0.274,0.729l-1.026-0.123c0.109-0.46,0.267-0.824,0.473-1.094c0.206-0.269,0.5-0.48,0.885-0.634
		c0.383-0.152,0.833-0.229,1.346-0.229c0.654,0,1.182,0.098,1.582,0.294c0.231,0.114,0.426,0.296,0.583,0.547
		c0.25-0.273,0.535-0.482,0.852-0.627c0.317-0.142,0.702-0.214,1.153-0.214c0.635,0,1.16,0.154,1.575,0.462s0.719,0.714,0.912,1.22
		S72.5,61.149,72.5,61.64c0,0.074-0.005,0.194-0.012,0.358h-4.509c0.007,0.561,0.077,0.968,0.209,1.221s0.342,0.465,0.63,0.634
		s0.606,0.254,0.952,0.254c0.404,0,0.747-0.115,1.028-0.346c0.28-0.23,0.474-0.555,0.581-0.973L72.462,62.929z M66.916,61.713
		c-0.308,0.133-0.934,0.275-1.879,0.428c-0.424,0.067-0.721,0.166-0.892,0.299c-0.23,0.184-0.344,0.424-0.344,0.721
		c0,0.277,0.103,0.511,0.309,0.7s0.506,0.284,0.899,0.284c0.447,0,0.837-0.111,1.169-0.334c0.332-0.223,0.549-0.5,0.65-0.832
		C66.886,62.775,66.916,62.354,66.916,61.713z M67.979,61.124h3.438c-0.056-0.618-0.232-1.07-0.531-1.355
		c-0.298-0.286-0.686-0.43-1.165-0.43c-0.495,0-0.9,0.157-1.216,0.47C68.19,60.122,68.015,60.561,67.979,61.124z"/>
	<path fill="#004FA2" d="M75.565,64.847v-6.248h0.949v0.962c0.24-0.445,0.462-0.74,0.666-0.882c0.203-0.143,0.428-0.214,0.672-0.214
		c0.353,0,0.71,0.112,1.074,0.337L78.56,59.77c-0.253-0.135-0.506-0.202-0.759-0.202c-0.226,0-0.429,0.069-0.608,0.208
		s-0.309,0.331-0.388,0.578c-0.117,0.375-0.176,0.785-0.176,1.232v3.261H75.565z"/>
	<path fill="#004FA2" d="M81.397,57.421v-1.197h1.063v1.197H81.397z M81.397,64.847v-6.248h1.063v6.248H81.397z"/>
	<path fill="#004FA2" d="M85.876,64.847v-6.248h0.95v0.888c0.458-0.681,1.121-1.021,1.986-1.021c0.377,0,0.723,0.068,1.038,0.203
		s0.552,0.313,0.709,0.531c0.156,0.22,0.266,0.48,0.329,0.782c0.039,0.196,0.059,0.539,0.059,1.028v3.837h-1.063v-3.799
		c0-0.432-0.041-0.754-0.123-0.968c-0.082-0.213-0.228-0.385-0.437-0.512c-0.208-0.128-0.453-0.191-0.734-0.191
		c-0.448,0-0.836,0.144-1.161,0.429c-0.326,0.287-0.489,0.83-0.489,1.63v3.411H85.876z"/>
	<path fill="#004FA2" d="M94.185,65.359l1.025,0.134c0.044,0.323,0.164,0.559,0.361,0.707c0.265,0.199,0.625,0.299,1.084,0.299
		c0.494,0,0.875-0.098,1.143-0.293c0.269-0.195,0.45-0.469,0.545-0.82c0.056-0.216,0.081-0.667,0.077-1.355
		c-0.465,0.544-1.043,0.816-1.735,0.816c-0.861,0-1.529-0.309-2.001-0.928c-0.473-0.619-0.708-1.361-0.708-2.228
		c0-0.595,0.108-1.145,0.324-1.647c0.216-0.504,0.529-0.894,0.94-1.168c0.41-0.273,0.893-0.411,1.447-0.411
		c0.738,0,1.348,0.304,1.828,0.912v-0.778h0.968v5.396c0,0.972-0.099,1.66-0.297,2.065s-0.513,0.726-0.942,0.961
		c-0.43,0.234-0.959,0.353-1.587,0.353c-0.746,0-1.349-0.167-1.808-0.501C94.391,66.537,94.169,66.033,94.185,65.359z
		 M95.059,61.615c0,0.819,0.163,1.417,0.492,1.794c0.328,0.376,0.738,0.564,1.233,0.564c0.489,0,0.9-0.188,1.232-0.562
		c0.332-0.375,0.499-0.962,0.499-1.762c0-0.765-0.171-1.341-0.514-1.729c-0.342-0.388-0.754-0.582-1.236-0.582
		c-0.474,0-0.878,0.19-1.209,0.573C95.224,60.295,95.059,60.862,95.059,61.615z"/>
	<path fill="#004FA2" d="M102.455,62.948l1.045-0.134c0.058,0.418,0.223,0.736,0.491,0.959c0.27,0.222,0.646,0.333,1.129,0.333
		c0.487,0,0.849-0.098,1.084-0.295s0.354-0.428,0.354-0.693c0-0.237-0.103-0.425-0.307-0.561c-0.143-0.094-0.504-0.213-1.084-0.357
		c-0.781-0.195-1.322-0.364-1.624-0.508c-0.301-0.143-0.528-0.341-0.685-0.593c-0.155-0.252-0.232-0.531-0.232-0.837
		c0-0.279,0.063-0.536,0.191-0.772c0.128-0.237,0.302-0.434,0.521-0.591c0.165-0.121,0.391-0.224,0.675-0.308
		c0.285-0.085,0.591-0.127,0.917-0.127c0.491,0,0.922,0.071,1.294,0.212c0.371,0.141,0.646,0.331,0.822,0.571
		s0.298,0.563,0.365,0.964l-1.025,0.134c-0.048-0.316-0.185-0.563-0.412-0.74c-0.227-0.179-0.547-0.267-0.962-0.267
		c-0.489,0-0.839,0.08-1.048,0.239c-0.209,0.16-0.313,0.348-0.313,0.562c0,0.137,0.043,0.259,0.131,0.368
		c0.086,0.112,0.223,0.206,0.408,0.28c0.106,0.039,0.42,0.129,0.941,0.27c0.754,0.199,1.276,0.363,1.569,0.49
		c0.292,0.127,0.522,0.312,0.689,0.555c0.166,0.242,0.249,0.544,0.249,0.904c0,0.352-0.103,0.685-0.309,0.996
		c-0.206,0.311-0.503,0.552-0.89,0.721c-0.389,0.172-0.828,0.257-1.317,0.257c-0.812,0-1.43-0.171-1.854-0.513
		C102.844,64.126,102.572,63.619,102.455,62.948z"/>
	<path fill="#004FA2" d="M110.676,67.24v-8.642h0.969v0.825c0.229-0.319,0.485-0.56,0.771-0.719c0.287-0.16,0.635-0.24,1.043-0.24
		c0.533,0,1.005,0.138,1.413,0.411c0.408,0.274,0.717,0.66,0.924,1.159c0.209,0.499,0.313,1.046,0.313,1.641
		c0,0.638-0.114,1.212-0.345,1.723c-0.229,0.511-0.563,0.902-1,1.174c-0.438,0.271-0.898,0.408-1.381,0.408
		c-0.354,0-0.671-0.075-0.951-0.225s-0.512-0.339-0.692-0.567v3.052H110.676z M111.606,61.759c0,0.8,0.165,1.392,0.494,1.773
		c0.329,0.383,0.728,0.574,1.195,0.574c0.476,0,0.883-0.197,1.222-0.595c0.339-0.396,0.508-1.009,0.508-1.841
		c0-0.792-0.165-1.385-0.496-1.779c-0.331-0.394-0.727-0.591-1.187-0.591c-0.456,0-0.858,0.21-1.209,0.629
		C111.782,60.35,111.606,60.959,111.606,61.759z"/>
	<path fill="#004FA2" d="M123.277,64.068c-0.381,0.333-0.753,0.569-1.118,0.706c-0.366,0.137-0.758,0.206-1.176,0.206
		c-0.691,0-1.223-0.168-1.595-0.503c-0.37-0.335-0.557-0.764-0.557-1.284c0-0.306,0.07-0.585,0.211-0.838
		c0.14-0.252,0.324-0.456,0.552-0.608c0.227-0.152,0.482-0.269,0.768-0.347c0.209-0.055,0.525-0.107,0.948-0.159
		c0.861-0.101,1.496-0.223,1.903-0.364c0.004-0.144,0.006-0.235,0.006-0.274c0-0.429-0.1-0.731-0.3-0.907
		c-0.271-0.237-0.672-0.356-1.205-0.356c-0.498,0-0.866,0.087-1.103,0.26c-0.237,0.173-0.412,0.479-0.526,0.918l-1.063-0.133
		c0.094-0.442,0.249-0.799,0.465-1.07c0.217-0.272,0.528-0.481,0.937-0.628c0.409-0.146,0.882-0.221,1.42-0.221
		c0.534,0,0.968,0.063,1.302,0.188c0.334,0.124,0.579,0.282,0.736,0.472s0.267,0.429,0.33,0.719c0.035,0.18,0.053,0.504,0.053,0.973
		v1.405c0,0.98,0.021,1.603,0.065,1.866c0.043,0.265,0.129,0.518,0.258,0.759h-1.083C123.387,64.625,123.311,64.365,123.277,64.068z
		 M123.22,61.713c-0.39,0.156-0.976,0.289-1.756,0.397c-0.442,0.063-0.754,0.133-0.938,0.211c-0.184,0.077-0.325,0.191-0.424,0.342
		c-0.1,0.149-0.149,0.316-0.149,0.499c0,0.281,0.108,0.515,0.325,0.702c0.217,0.187,0.533,0.28,0.951,0.28
		c0.413,0,0.78-0.09,1.103-0.268c0.321-0.178,0.558-0.42,0.709-0.729c0.115-0.237,0.173-0.587,0.173-1.05L123.22,61.713z"/>
	<path fill="#004FA2" d="M127.673,64.847v-6.248h0.949v0.962c0.24-0.445,0.462-0.74,0.666-0.882
		c0.203-0.143,0.427-0.214,0.671-0.214c0.353,0,0.711,0.112,1.075,0.337l-0.368,0.968c-0.253-0.135-0.505-0.202-0.758-0.202
		c-0.226,0-0.429,0.069-0.608,0.208s-0.31,0.331-0.388,0.578c-0.117,0.375-0.176,0.785-0.176,1.232v3.261H127.673z"/>
	<path fill="#004FA2" d="M133.505,64.847v-8.623h1.063v4.914l2.502-2.539h1.37l-2.388,2.322l2.635,3.926h-1.277l-2.088-3.215
		l-0.754,0.732v2.482H133.505z"/>
</g>
<g>
	<path fill="#004FA2" d="M52.699,37.104h6.376l2.448,9.518l2.453-9.518h6.35v15.651h-3.951V40.81l-3.078,11.945h-3.575L56.65,40.81
		v11.945h-3.951V37.104z"/>
	<path fill="#004FA2" d="M85.052,52.755h-4.043v-1.823c-0.607,0.754-1.22,1.29-1.838,1.609s-1.377,0.479-2.276,0.479
		c-1.201,0-2.142-0.358-2.823-1.075c-0.683-0.718-1.023-1.822-1.023-3.313v-7.236h4.369v6.269c0,0.715,0.132,1.224,0.397,1.524
		c0.266,0.3,0.639,0.45,1.12,0.45c0.523,0,0.952-0.2,1.286-0.601c0.333-0.401,0.501-1.12,0.501-2.158v-5.485h4.33V52.755z"/>
	<path fill="#004FA2" d="M86.921,49.602l4.33-0.38c0.179,0.503,0.428,0.863,0.748,1.08c0.32,0.218,0.748,0.325,1.282,0.325
		c0.584,0,1.036-0.125,1.356-0.375c0.25-0.186,0.374-0.419,0.374-0.697c0-0.314-0.163-0.557-0.49-0.729
		c-0.234-0.121-0.858-0.271-1.869-0.451c-1.512-0.264-2.561-0.509-3.148-0.733c-0.588-0.225-1.083-0.604-1.485-1.138
		c-0.403-0.534-0.604-1.143-0.604-1.827c0-0.747,0.218-1.392,0.652-1.933c0.435-0.542,1.034-0.946,1.797-1.213
		s1.785-0.401,3.068-0.401c1.355,0,2.354,0.104,3,0.311c0.645,0.208,1.184,0.528,1.614,0.963s0.789,1.023,1.075,1.766l-4.141,0.417
		c-0.107-0.374-0.286-0.649-0.536-0.826c-0.343-0.234-0.756-0.352-1.242-0.352c-0.492,0-0.851,0.088-1.076,0.263
		c-0.225,0.175-0.337,0.388-0.337,0.638c0,0.279,0.145,0.49,0.436,0.633c0.29,0.143,0.913,0.271,1.867,0.386
		c1.447,0.165,2.523,0.394,3.229,0.687c0.705,0.293,1.245,0.712,1.619,1.255c0.374,0.544,0.562,1.141,0.562,1.791
		c0,0.658-0.198,1.299-0.595,1.921c-0.396,0.622-1.02,1.118-1.872,1.486c-0.852,0.367-2.013,0.552-3.482,0.552
		c-2.077,0-3.555-0.297-4.436-0.89S87.17,50.694,86.921,49.602z"/>
	<path fill="#004FA2" d="M106.326,37.104v4.292h2.394v3.191h-2.394v4.031c0,0.485,0.046,0.806,0.139,0.962
		c0.142,0.242,0.391,0.363,0.745,0.363c0.319,0,0.768-0.093,1.343-0.278l0.318,3.003c-1.075,0.234-2.08,0.353-3.013,0.353
		c-1.083,0-1.881-0.14-2.395-0.417c-0.513-0.277-0.892-0.7-1.138-1.267c-0.245-0.566-0.368-1.483-0.368-2.752v-3.998h-1.596v-3.191
		h1.596v-2.072L106.326,37.104z"/>
	<path fill="#004FA2" d="M114.747,45.043l-4.141-0.418c0.155-0.727,0.381-1.299,0.676-1.715c0.296-0.417,0.721-0.778,1.275-1.085
		c0.397-0.221,0.945-0.392,1.642-0.513c0.697-0.122,1.45-0.182,2.261-0.182c1.301,0,2.346,0.074,3.135,0.22
		c0.79,0.146,1.447,0.451,1.974,0.916c0.369,0.321,0.66,0.776,0.874,1.365c0.213,0.588,0.32,1.15,0.32,1.686v5.021
		c0,0.535,0.033,0.954,0.101,1.258c0.068,0.303,0.216,0.69,0.443,1.161h-4.083c-0.164-0.293-0.271-0.517-0.32-0.671
		c-0.051-0.152-0.101-0.395-0.15-0.724c-0.568,0.554-1.133,0.949-1.693,1.186c-0.767,0.316-1.658,0.475-2.673,0.475
		c-1.35,0-2.375-0.314-3.074-0.943c-0.699-0.63-1.049-1.406-1.049-2.328c0-0.866,0.252-1.577,0.757-2.135
		c0.504-0.558,1.434-0.973,2.79-1.245c1.626-0.329,2.68-0.56,3.163-0.691c0.482-0.132,0.994-0.306,1.534-0.521
		c0-0.535-0.11-0.909-0.331-1.123c-0.22-0.214-0.607-0.321-1.161-0.321c-0.71,0-1.242,0.113-1.598,0.338
		C115.141,44.227,114.917,44.558,114.747,45.043z M118.508,47.36c-0.593,0.213-1.211,0.403-1.853,0.566
		c-0.876,0.235-1.431,0.467-1.663,0.695c-0.239,0.235-0.359,0.503-0.359,0.802c0,0.342,0.118,0.622,0.354,0.84
		c0.236,0.217,0.584,0.325,1.043,0.325c0.479,0,0.926-0.117,1.339-0.353c0.413-0.234,0.706-0.522,0.879-0.86
		c0.173-0.339,0.26-0.779,0.26-1.321V47.36z"/>
	<path fill="#004FA2" d="M137.318,37.104v15.651h-4.085v-1.677c-0.569,0.716-1.089,1.198-1.559,1.448
		c-0.626,0.329-1.324,0.494-2.093,0.494c-1.544,0-2.725-0.589-3.539-1.768c-0.815-1.178-1.223-2.61-1.223-4.296
		c0-1.885,0.45-3.327,1.351-4.327c0.9-1,2.044-1.5,3.432-1.5c0.676,0,1.29,0.115,1.842,0.344c0.551,0.229,1.04,0.574,1.468,1.032
		v-5.402H137.318z M132.944,47.049c0-0.891-0.189-1.556-0.568-1.995c-0.379-0.438-0.857-0.658-1.436-0.658
		c-0.507,0-0.933,0.211-1.275,0.631s-0.514,1.126-0.514,2.117c0,0.927,0.176,1.606,0.53,2.037c0.354,0.432,0.791,0.646,1.313,0.646
		c0.557,0,1.021-0.217,1.393-0.652C132.759,48.743,132.944,48.033,132.944,47.049z"/>
</g>
<path fill="#B0BC22" d="M43.211,37.059l-1.533,1.533h0.876v1.385h-5.923v1.898h-1.458v-4.524h-1.168v-1.095h-6.272l-1.896-1.895
	l-3.72,3.72h0.655v0.803h-4.825v-8.336h-1.612v5.707h-3.306v10.392c2.218-0.045,7.628,0.063,11.782,1.928
	c4.599,2.065,4.738,3.537,8.032,5.325c1.776,0.965,4.113,1.636,6.363,2.102c0.02-0.201,0.06-0.399,0.021-0.602
	c-0.049-0.256-0.048-0.509-0.039-0.772c-0.031-0.109-0.038-0.229-0.029-0.352c0.004-0.06,0.02-0.134,0.036-0.215
	c-0.002-0.17,0.004-0.34,0.035-0.499c-0.011-0.039-0.027-0.075-0.054-0.104c0.003,0.003-0.08-0.021-0.092-0.027
	c-0.027-0.015-0.08-0.063-0.109-0.087c-0.065-0.054-0.076-0.074-0.122-0.145c-0.047-0.072-0.082-0.144-0.111-0.22
	c-0.011-0.003-0.021-0.005-0.032-0.007c-0.138-0.036-0.237-0.059-0.302-0.208l0.019,0.038c-0.162,0.075-0.231-0.091-0.388-0.078
	c-0.042-0.237-0.399-0.282-0.422-0.56c-0.012-0.128,0.104-0.228,0.077-0.365c-0.009-0.048-0.128-0.208-0.153-0.26
	c-0.09-0.187-0.12-0.362-0.211-0.559c-0.106-0.228-0.111-0.803,0.285-0.8c0.029-0.354,0.005-0.849,0.414-0.928
	c-0.03-0.138,0.072-0.104,0.094-0.146c-0.005,0.011,0.064-0.157,0.06-0.152c0.187-0.187,0.269,0.021,0.469-0.002
	c0.007-0.169,0.165-0.125,0.284-0.132c0.011-0.113,0.181-0.14,0.282-0.132c0.069-0.312,0.447-0.24,0.649-0.148
	c0.211,0.096,0.7,0.268,0.657,0.563c0.351,0.063,0.44,0.418,0.621,0.631c0.1,0.117,0.238,0.123,0.284,0.296
	c0.046,0.177-0.018,0.377,0.019,0.554c0.039,0.188,0.116,0.173,0.024,0.357c-0.053,0.105-0.1,0.161-0.113,0.277
	c-0.012,0.101-0.088,0.286-0.083,0.382c0.01,0.168,0.166,0.241,0.111,0.45c-0.053,0.197-0.275,0.295-0.318,0.468
	c-0.151-0.025-0.148,0.159-0.296,0.175c-0.042,0.201-0.393,0.248-0.556,0.272c-0.01,0.102-0.016,0.211-0.053,0.294
	c-0.091,0.209-0.238,0.496-0.406,0.666c-0.061,0.061-0.117,0.098-0.132,0.178c-0.011,0.063,0.011,0.136,0.017,0.197
	c0.012,0.141,0.027,0.284,0.039,0.426c0.022,0.246-0.002,0.506,0.023,0.753c0.02,0.201,0.045,0.447,0.105,0.644
	c2.794,0.538,5.354,0.762,6.41,0.838V37.059H43.211z M39.918,53.477c0.053-0.111,0.142-0.222,0.192-0.333
	c0.025-0.055,0.032-0.112,0.038-0.171c-0.11,0.017-0.213,0.025-0.326-0.019c-0.038-0.016-0.139-0.076-0.2-0.122
	c-0.015,0.1-0.034,0.193-0.043,0.256c-0.034,0.231,0.038,0.486,0.043,0.726C39.844,53.81,39.847,53.622,39.918,53.477z
	 M19.708,48.919c-3.424-0.534-5.677-0.184-6.679,0.056v0.222l33.187,15.475v-5.306c-2.277-0.409-11.573-2.237-16.469-5.638
	C25.73,50.938,24.22,49.624,19.708,48.919z M39.103,53.025c-0.083,0.032-0.131,0.009-0.192-0.007
	c0.02,0.034,0.036,0.072,0.063,0.098c0.079,0.074,0.18,0.152,0.263,0.223c0.033-0.148,0.025-0.319,0.012-0.479
	C39.176,52.898,39.104,52.929,39.103,53.025z"/>
</svg>
