<?xml version="1.0" encoding="utf-8"?>
<!-- Generator: Adobe Illustrator 15.0.0, SVG Export Plug-In . SVG Version: 6.00 Build 0)  -->
<!DOCTYPE svg PUBLIC "-//W3C//DTD SVG 1.1//EN" "http://www.w3.org/Graphics/SVG/1.1/DTD/svg11.dtd">
<svg version="1.1" id="Layer_1" xmlns="http://www.w3.org/2000/svg" xmlns:xlink="http://www.w3.org/1999/xlink" x="0px" y="0px"
	 width="150px" height="99px" viewBox="0 0 150 99" enable-background="new 0 0 150 99" xml:space="preserve">
<g>
	<g>
		<defs>
			<rect id="SVGID_1_" x="3.52" y="23.213" width="145.48" height="50.787"/>
		</defs>
		<clipPath id="SVGID_2_">
			<use xlink:href="#SVGID_1_"  overflow="visible"/>
		</clipPath>
		<g clip-path="url(#SVGID_2_)">
			<defs>
				<rect id="SVGID_3_" x="3.52" y="23.213" width="145.48" height="50.787"/>
			</defs>
			<clipPath id="SVGID_4_">
				<use xlink:href="#SVGID_3_"  overflow="visible"/>
			</clipPath>
			<path clip-path="url(#SVGID_4_)" fill="#F36E21" d="M30.666,29.377c-9.634,0-17.444,7.81-17.444,17.445v20.13l9.394-9.742
				l10.418-0.023l-0.025-6.709H22.63l-0.081-7.37l4.464-4.411l0.026,6.724h5.954l-0.009-6.752l-5.939-0.012
				c0.125-0.151,4.44-4.441,4.44-4.441h0.003l0,0h7.434v4.465l-1.428-0.003v14.095l-4.46,4.415l-4.514,4.53l-6.953-0.016
				c2.649,1.624,5.763,2.565,9.1,2.565c9.635,0,17.445-7.81,17.445-17.445C48.111,37.187,40.301,29.377,30.666,29.377"/>
			<path clip-path="url(#SVGID_4_)" fill="#231F20" d="M56.833,33.998h5.515c3.22,0,5.168,1.909,5.168,4.667v0.038
				c0,3.124-2.43,4.744-5.457,4.744h-2.256v4.05h-2.97V33.998z M62.154,40.805c1.485,0,2.353-0.887,2.353-2.044v-0.039
				c0-1.331-0.925-2.044-2.41-2.044h-2.294v4.126H62.154z"/>
			<path clip-path="url(#SVGID_4_)" fill="#231F20" d="M70.099,33.999h6.17c1.716,0,3.047,0.482,3.934,1.369
				c0.752,0.752,1.157,1.812,1.157,3.085v0.039c0,2.179-1.177,3.548-2.893,4.185l3.298,4.821h-3.472l-2.892-4.319h-2.333v4.319
				h-2.97V33.999z M76.076,40.554c1.447,0,2.276-0.771,2.276-1.909v-0.039c0-1.273-0.887-1.928-2.334-1.928h-2.95v3.875H76.076z"/>
			<path clip-path="url(#SVGID_4_)" fill="#231F20" d="M83.828,40.786v-0.039c0-3.837,3.027-6.98,7.192-6.98
				c4.166,0,7.154,3.104,7.154,6.942v0.039c0,3.837-3.027,6.98-7.192,6.98S83.828,44.623,83.828,40.786 M95.07,40.786v-0.039
				c0-2.314-1.697-4.242-4.088-4.242c-2.392,0-4.05,1.89-4.05,4.204v0.039c0,2.313,1.697,4.242,4.088,4.242
				C93.412,44.99,95.07,43.1,95.07,40.786"/>
			<polygon clip-path="url(#SVGID_4_)" fill="#231F20" points="100.431,33.999 110.708,33.999 110.708,36.698 103.4,36.698 
				103.4,39.571 109.841,39.571 109.841,42.271 103.4,42.271 103.4,47.496 100.431,47.496 			"/>
			<rect x="113.601" y="33.999" clip-path="url(#SVGID_4_)" fill="#231F20" width="2.97" height="13.498"/>
			<polygon clip-path="url(#SVGID_4_)" fill="#231F20" points="120.33,33.999 123.301,33.999 123.301,44.797 130.03,44.797 
				130.03,47.496 120.33,47.496 			"/>
			<path clip-path="url(#SVGID_4_)" fill="#231F20" d="M61.604,58.979h2.42h0.568v0.568v1.928v0.291l-0.237,0.17
				c-0.835,0.601-1.916,0.917-3.127,0.917c-2.698,0-4.656-2.039-4.656-4.849v-0.038c0-2.632,1.993-4.772,4.443-4.772
				c1.508,0,2.489,0.431,3.446,1.146l1.148-1.384c-1.101-0.832-2.366-1.364-4.498-1.364c-1.803,0-3.461,0.669-4.669,1.884
				c-1.187,1.193-1.84,2.802-1.84,4.528v0.038c0,3.753,2.684,6.374,6.528,6.374c1.925,0,3.673-0.619,5.197-1.84v-5.026h-4.726
				V58.979z"/>
			<path clip-path="url(#SVGID_4_)" fill="#231F20" d="M120.571,55.132v0.038c0,2.177,1.248,2.862,4.046,3.576
				c2.176,0.559,3.146,1.018,3.146,2.267v0.039c0,1.358-1.355,1.841-2.516,1.841c-1.378,0-2.645-0.454-3.947-1.421l-1.037,1.242
				c1.392,1.077,3.12,1.665,4.926,1.665c2.748,0,4.388-1.353,4.388-3.617v-0.038c0-1.842-1.009-2.758-3.855-3.5
				c-2.191-0.562-3.337-0.92-3.337-2.323v-0.039c0-0.868,0.713-1.744,2.304-1.744c0.937,0,1.913,0.292,2.964,0.885l1.189-1.172
				c-1.196-0.794-2.577-1.199-4.115-1.199C122.241,51.631,120.571,53.038,120.571,55.132"/>
			<rect x="114.092" y="51.824" clip-path="url(#SVGID_4_)" fill="#231F20" width="1.833" height="12.361"/>
			<polygon clip-path="url(#SVGID_4_)" fill="#231F20" points="102.62,53.955 102.62,53.387 103.188,53.387 109.929,53.387 
				109.929,51.824 100.787,51.824 100.787,64.186 102.62,64.186 102.62,59.528 102.62,58.96 103.188,58.96 109.061,58.96 
				109.061,57.396 103.188,57.396 102.62,57.396 102.62,56.828 			"/>
			<path clip-path="url(#SVGID_4_)" fill="#231F20" d="M91.455,51.728h-1.986l-5.302,12.458h1.786l1.09-2.674l0.145-0.354h0.382
				h5.707h0.383l0.144,0.354l1.09,2.674h1.864L91.455,51.728z M92.217,59.672H88.63h-0.847l0.321-0.783l1.793-4.378l0.525-1.282
				l0.525,1.282l1.794,4.378l0.321,0.783H92.217z"/>
			<path clip-path="url(#SVGID_4_)" fill="#231F20" d="M77.627,59.653l0.682-0.253c1.151-0.427,2.522-1.406,2.522-3.651V55.71
				c0-1.107-0.343-2.035-0.991-2.684c-0.786-0.787-2.008-1.202-3.531-1.202h-5.603v12.361h1.833v-3.751v-0.568h0.568h2.333h0.304
				l0.168,0.252l2.724,4.067h2.092l-2.69-3.932L77.627,59.653z M73.107,58.38h-0.568v-0.568v-3.875v-0.568h0.568h2.951
				c1.816,0,2.901,0.934,2.901,2.496v0.039c0,1.504-1.116,2.477-2.844,2.477H73.107z"/>
			<polygon clip-path="url(#SVGID_4_)" fill="#231F20" points="138.5,57.32 138.215,56.936 138.547,56.589 143.12,51.824 
				141.113,51.824 135.806,57.543 134.821,58.604 134.821,57.156 134.821,51.824 132.988,51.824 132.988,62.218 137.012,58.126 
				137.41,58.673 141.425,64.186 143.577,64.186 			"/>
		</g>
	</g>
</g>
</svg>
