<?xml version="1.0" encoding="utf-8"?>
<!-- Generator: Adobe Illustrator 15.0.0, SVG Export Plug-In . SVG Version: 6.00 Build 0)  -->
<!DOCTYPE svg PUBLIC "-//W3C//DTD SVG 1.1//EN" "http://www.w3.org/Graphics/SVG/1.1/DTD/svg11.dtd">
<svg version="1.1" id="Layer_1" xmlns="http://www.w3.org/2000/svg" xmlns:xlink="http://www.w3.org/1999/xlink" x="0px" y="0px"
	 width="150px" height="99px" viewBox="0 0 150 99" enable-background="new 0 0 150 99" xml:space="preserve">
<g>
	<path fill="#323031" d="M19.002,59.147c0,1.75-0.762,2.853-2.289,3.303l2.776,3.855h-2.274l-2.536-3.56h-2.35v3.56h-1.792V55.699
		h3.945c1.618,0,2.779,0.271,3.476,0.823C18.655,57.065,19.002,57.94,19.002,59.147 M16.621,60.649
		c0.365-0.318,0.548-0.821,0.548-1.51c0-0.697-0.188-1.174-0.563-1.432s-1.043-0.387-2.002-0.387h-2.275v3.8h2.229
		C15.571,61.121,16.259,60.958,16.621,60.649"/>
	<path fill="#323031" d="M28.243,63.016h-6.327c0.042,0.582,0.31,1.057,0.805,1.415c0.495,0.361,1.063,0.538,1.7,0.538
		c1.01,0,1.782-0.314,2.305-0.951l0.974,1.059c-0.871,0.897-2.002,1.352-3.401,1.352c-1.134,0-2.095-0.377-2.89-1.13
		c-0.795-0.754-1.191-1.765-1.191-3.033c0-1.266,0.403-2.285,1.212-3.033c0.81-0.747,1.765-1.121,2.861-1.121
		c1.099,0,2.033,0.333,2.8,0.993c0.768,0.667,1.152,1.58,1.152,2.738V63.016z M21.916,61.68h4.629c0-0.675-0.213-1.203-0.638-1.566
		c-0.424-0.358-0.948-0.546-1.569-0.546c-0.622,0-1.182,0.194-1.678,0.574C22.164,60.521,21.916,61.033,21.916,61.68"/>
	<path fill="#323031" d="M40.521,61.937v4.369h-1.7V58.23h1.7v1.474c0.27-0.496,0.646-0.885,1.129-1.165
		c0.482-0.281,1-0.429,1.556-0.429c0.907,0,1.645,0.283,2.206,0.835c0.561,0.562,0.841,1.362,0.841,2.411v4.949h-1.699V61.88
		c0-1.488-0.617-2.231-1.85-2.231c-0.587,0-1.098,0.19-1.534,0.577C40.735,60.622,40.521,61.188,40.521,61.937"/>
	<path fill="#323031" d="M53.766,63.896c0,0.768-0.28,1.382-0.837,1.837c-0.555,0.464-1.268,0.694-2.138,0.694
		c-0.584,0-1.195-0.107-1.827-0.323c-0.633-0.206-1.192-0.51-1.679-0.893l0.82-1.315c0.94,0.701,1.852,1.058,2.732,1.058
		c0.384,0,0.688-0.082,0.91-0.264c0.223-0.174,0.335-0.4,0.335-0.672c0-0.412-0.538-0.768-1.61-1.096
		c-0.079-0.027-0.141-0.048-0.181-0.065c-1.681-0.449-2.519-1.208-2.519-2.274c0-0.747,0.289-1.348,0.874-1.794
		c0.58-0.453,1.335-0.679,2.266-0.679c0.932,0,1.812,0.278,2.64,0.822l-0.638,1.258c-0.654-0.432-1.37-0.65-2.137-0.65
		c-0.407,0-0.735,0.071-0.987,0.222c-0.253,0.146-0.38,0.368-0.38,0.658c0,0.264,0.131,0.459,0.393,0.58
		c0.183,0.084,0.438,0.174,0.77,0.257c0.328,0.076,0.616,0.159,0.87,0.244c0.255,0.074,0.498,0.167,0.736,0.271
		c0.238,0.103,0.493,0.242,0.769,0.42C53.49,62.559,53.766,63.129,53.766,63.896"/>
	<path fill="#323031" d="M69.698,66.306h-1.548v-1.081c-0.669,0.806-1.562,1.203-2.686,1.203c-0.842,0-1.537-0.238-2.088-0.716
		c-0.548-0.475-0.827-1.111-0.827-1.902s0.295-1.387,0.88-1.779c0.588-0.394,1.38-0.596,2.381-0.596h2.203v-0.299
		c0-1.076-0.597-1.61-1.791-1.61c-0.75,0-1.525,0.272-2.334,0.815l-0.762-1.058c0.981-0.777,2.095-1.173,3.339-1.173
		c0.951,0,1.73,0.238,2.329,0.721c0.604,0.483,0.904,1.238,0.904,2.268V66.306z M67.996,63.303v-0.68h-1.909
		c-1.226,0-1.837,0.384-1.837,1.151c0,0.393,0.152,0.691,0.456,0.901c0.304,0.21,0.724,0.307,1.267,0.307
		c0.542,0,1.013-0.15,1.42-0.45C67.794,64.224,67.996,63.816,67.996,63.303"/>
	<path fill="#323031" d="M86.738,63.896c0,0.768-0.284,1.382-0.836,1.837c-0.562,0.464-1.269,0.694-2.14,0.694
		c-0.588,0-1.199-0.107-1.83-0.323c-0.633-0.206-1.187-0.51-1.673-0.893l0.813-1.315c0.945,0.701,1.853,1.058,2.732,1.058
		c0.385,0,0.692-0.082,0.908-0.264c0.224-0.174,0.337-0.4,0.337-0.672c0-0.412-0.533-0.768-1.609-1.096
		c-0.076-0.027-0.141-0.048-0.179-0.065c-1.684-0.449-2.517-1.208-2.517-2.274c0-0.747,0.288-1.348,0.872-1.794
		c0.575-0.453,1.331-0.679,2.268-0.679c0.926,0,1.806,0.278,2.639,0.822l-0.637,1.258c-0.654-0.432-1.37-0.65-2.138-0.65
		c-0.412,0-0.735,0.071-0.987,0.222c-0.253,0.146-0.379,0.368-0.379,0.658c0,0.264,0.13,0.459,0.394,0.58
		c0.178,0.084,0.432,0.174,0.764,0.257c0.333,0.076,0.621,0.159,0.874,0.244c0.253,0.074,0.498,0.167,0.735,0.271
		c0.239,0.103,0.494,0.242,0.767,0.42C86.459,62.559,86.738,63.129,86.738,63.896"/>
	<path fill="#323031" d="M91.639,66.428c-1.123,0-2.091-0.382-2.896-1.145c-0.814-0.763-1.217-1.762-1.217-2.997
		c0-1.233,0.419-2.239,1.267-3.01c0.846-0.773,1.873-1.166,3.09-1.166c1.206,0,2.241,0.423,3.074,1.267l-1.001,1.221
		c-0.692-0.599-1.399-0.907-2.111-0.907c-0.701,0-1.316,0.235-1.837,0.709c-0.52,0.472-0.787,1.07-0.787,1.814
		c0,0.745,0.266,1.374,0.78,1.89c0.516,0.522,1.15,0.779,1.902,0.779c0.754,0,1.467-0.346,2.132-1.037l1,1.094
		C94.053,65.932,92.921,66.428,91.639,66.428"/>
	<path fill="#323031" d="M102.775,65.219c-0.815,0.809-1.824,1.209-3.033,1.209c-1.215,0-2.227-0.4-3.04-1.209
		c-0.806-0.801-1.209-1.784-1.209-2.946c0-1.17,0.403-2.145,1.209-2.954c0.813-0.801,1.825-1.208,3.04-1.208
		c1.209,0,2.218,0.407,3.033,1.208c0.805,0.81,1.215,1.784,1.215,2.954C103.99,63.435,103.58,64.418,102.775,65.219 M97.911,64.175
		c0.48,0.492,1.091,0.737,1.831,0.737c0.737,0,1.341-0.245,1.823-0.737c0.482-0.491,0.723-1.126,0.723-1.902
		s-0.24-1.419-0.723-1.909c-0.482-0.484-1.086-0.729-1.823-0.729c-0.74,0-1.351,0.245-1.831,0.729
		c-0.482,0.49-0.723,1.133-0.723,1.909S97.429,63.684,97.911,64.175"/>
	<path fill="#323031" d="M107.01,61.937v4.369h-1.704V58.23h1.704v1.474c0.271-0.496,0.646-0.885,1.129-1.165
		c0.482-0.281,0.999-0.429,1.551-0.429c0.916,0,1.646,0.283,2.211,0.835c0.557,0.562,0.844,1.362,0.844,2.411v4.949h-1.701V61.88
		c0-1.488-0.618-2.231-1.854-2.231c-0.581,0-1.098,0.19-1.529,0.577C107.22,60.622,107.01,61.188,107.01,61.937"/>
	<path fill="#323031" d="M120.255,63.896c0,0.768-0.285,1.382-0.838,1.837c-0.554,0.464-1.268,0.694-2.139,0.694
		c-0.588,0-1.199-0.107-1.831-0.323c-0.632-0.206-1.187-0.51-1.672-0.893l0.813-1.315c0.945,0.701,1.853,1.058,2.731,1.058
		c0.385,0,0.693-0.082,0.916-0.264c0.217-0.174,0.329-0.4,0.329-0.672c0-0.412-0.533-0.768-1.608-1.096
		c-0.075-0.027-0.142-0.048-0.178-0.065c-1.686-0.449-2.519-1.208-2.519-2.274c0-0.747,0.288-1.348,0.874-1.794
		c0.574-0.453,1.33-0.679,2.267-0.679c0.926,0,1.806,0.278,2.639,0.822l-0.638,1.258c-0.654-0.432-1.37-0.65-2.137-0.65
		c-0.405,0-0.734,0.071-0.988,0.222c-0.252,0.146-0.378,0.368-0.378,0.658c0,0.264,0.13,0.459,0.393,0.58
		c0.185,0.084,0.439,0.174,0.765,0.257c0.333,0.076,0.62,0.159,0.873,0.244c0.253,0.074,0.499,0.167,0.737,0.271
		c0.237,0.103,0.493,0.242,0.765,0.42C119.981,62.559,120.255,63.129,120.255,63.896"/>
	<path fill="#323031" d="M127.213,62.601v-4.371h1.702v8.076h-1.702v-1.474c-0.271,0.497-0.647,0.886-1.13,1.174
		c-0.476,0.281-1,0.422-1.552,0.422c-0.909,0-1.645-0.276-2.211-0.838c-0.557-0.552-0.838-1.361-0.838-2.409v-4.951h1.697v4.436
		c0,1.489,0.617,2.232,1.853,2.232c0.587,0,1.099-0.198,1.53-0.587C127.002,63.922,127.213,63.349,127.213,62.601"/>
	<path fill="#323031" d="M35.269,58.23v1.202c-0.668-0.881-1.537-1.322-2.603-1.322c-1.067,0-1.944,0.374-2.633,1.121
		c-0.687,0.749-1.032,1.685-1.032,2.799c0,1.112,0.345,2.039,1.032,2.789c0.688,0.747,1.568,1.121,2.641,1.121
		c0.588,0,1.115-0.141,1.587-0.42c0.467-0.29,0.83-0.67,1.083-1.138v1.029c0,0.908-0.235,1.567-0.704,1.989
		c-0.472,0.411-1.109,0.621-1.912,0.621c-0.548,0-1.091-0.147-1.633-0.432v1.681c0.549,0.185,1.125,0.282,1.732,0.282
		c1.212,0,2.206-0.357,2.979-1.074c0.775-0.706,1.163-1.78,1.163-3.204V58.23H35.269z M34.623,63.695
		c-0.427,0.468-0.989,0.701-1.685,0.701c-0.692,0-1.241-0.241-1.653-0.722c-0.411-0.482-0.614-1.049-0.614-1.718
		c0-0.659,0.203-1.242,0.614-1.737c0.412-0.497,0.958-0.745,1.646-0.745c0.688,0,1.25,0.24,1.685,0.723
		c0.435,0.482,0.653,1.071,0.653,1.76C35.269,62.653,35.053,63.228,34.623,63.695"/>
	<path fill="#323031" d="M78.499,59.231c-0.769-0.747-1.699-1.121-2.784-1.121c-1.077,0-1.951,0.517-2.62,1.538v-1.419h-1.699v9.749
		h1.699v-2.89c0.81,0.89,1.72,1.339,2.734,1.339c1.024,0,1.914-0.389,2.677-1.165c0.763-0.785,1.146-1.797,1.146-3.041
		C79.651,60.976,79.266,59.979,78.499,59.231 M77.203,64.182c-0.496,0.486-1.072,0.73-1.741,0.73c-0.669,0-1.235-0.245-1.698-0.737
		c-0.467-0.491-0.702-1.122-0.702-1.888c0-0.767,0.235-1.407,0.702-1.924c0.463-0.512,1.034-0.767,1.712-0.767
		c0.677,0,1.263,0.255,1.742,0.767c0.486,0.517,0.729,1.158,0.729,1.931S77.698,63.695,77.203,64.182"/>
	<path fill="#323031" d="M137.677,64.929c-0.035,0.003-0.071,0.025-0.114,0.025c-0.364,0-0.646-0.114-0.852-0.345
		c-0.197-0.221-0.3-0.53-0.3-0.914v-4.099h2.125v-1.367h-2.125v-1.633h-1.702v1.633h-1.016v1.367h1.016v4.057
		c0,0.852,0.255,1.523,0.771,2.023c0.51,0.5,1.129,0.751,1.847,0.751c0.118,0,0.233-0.018,0.35-0.03V64.929z"/>
	<polygon fill="#323031" points="59.179,61.435 62.244,58.23 60.06,58.23 56.784,61.664 56.784,54.896 56.056,54.896 55.084,55.461 
		55.084,66.306 56.784,66.306 56.784,64.019 58.014,62.773 60.411,66.306 62.473,66.306 	"/>
	<polygon fill="#323031" points="130.769,55.426 130.769,66.306 132.463,66.306 132.463,54.896 131.675,54.896 	"/>
</g>
<rect x="62.805" y="30.774" fill="#D91A32" width="21.387" height="21.388"/>
<path fill="#FFFFFF" d="M76.675,40.763l1.969,1.019l-2.876,0.479l-1.372-0.719l-1.733-0.906l-1.092-0.582l-2.954,0.489l0.942,2.755
	l-2.284,0.381l-2.634-7.999l4.83-0.78c0.494-0.082,0.955-0.145,1.388-0.187c0.432-0.045,0.832-0.073,1.202-0.081
	c0.371-0.009,0.714,0.001,1.023,0.03c0.311,0.025,0.588,0.073,0.838,0.136c0.25,0.063,0.481,0.146,0.689,0.248
	c0.212,0.104,0.399,0.222,0.564,0.365c0.169,0.14,0.315,0.302,0.445,0.479c0.127,0.181,0.235,0.383,0.313,0.602
	c0.126,0.32,0.185,0.622,0.17,0.906c-0.023,0.281-0.104,0.545-0.268,0.788c-0.156,0.245-0.383,0.471-0.685,0.674
	c-0.302,0.204-0.675,0.389-1.119,0.555l0.673,0.344L76.675,40.763z M73.417,38.081c0.093-0.077,0.167-0.159,0.224-0.25
	c0.057-0.088,0.093-0.186,0.117-0.286c0.021-0.104,0.024-0.212,0.012-0.324c-0.012-0.116-0.044-0.237-0.094-0.364
	c-0.048-0.126-0.103-0.242-0.176-0.344c-0.069-0.1-0.147-0.191-0.235-0.268c-0.093-0.077-0.19-0.141-0.303-0.195
	c-0.112-0.054-0.234-0.094-0.365-0.122c-0.132-0.026-0.287-0.047-0.456-0.056c-0.173-0.008-0.366-0.008-0.582,0.001
	c-0.212,0.01-0.447,0.031-0.7,0.058c-0.253,0.031-0.526,0.067-0.822,0.116l-2.801,0.454l0.964,2.813l2.782-0.457
	c0.315-0.052,0.604-0.108,0.861-0.167c0.258-0.057,0.49-0.119,0.692-0.183c0.202-0.065,0.377-0.132,0.523-0.203
	C73.208,38.234,73.328,38.16,73.417,38.081"/>
<path fill="#FFFFFF" d="M71.866,41.214l1.755,0.899c-0.186,0.177-0.337,0.356-0.458,0.542c-0.121,0.185-0.206,0.374-0.262,0.567
	s-0.076,0.391-0.066,0.593c0.01,0.204,0.055,0.414,0.13,0.626c0.076,0.216,0.18,0.417,0.308,0.604
	c0.129,0.188,0.282,0.364,0.464,0.522c0.182,0.163,0.388,0.309,0.623,0.443c0.236,0.134,0.496,0.255,0.784,0.362
	c0.285,0.108,0.575,0.193,0.876,0.259c0.293,0.066,0.6,0.114,0.9,0.14c0.311,0.028,0.614,0.033,0.923,0.02
	c0.317-0.013,0.638-0.049,0.953-0.104c0.203-0.032,0.389-0.071,0.574-0.115c0.178-0.039,0.347-0.086,0.516-0.137
	c0.161-0.051,0.313-0.104,0.456-0.16c0.151-0.059,0.287-0.12,0.413-0.187c0.041-0.025,0.081-0.048,0.131-0.074
	c0.039-0.023,0.079-0.048,0.127-0.077c0.04-0.024,0.079-0.054,0.127-0.08c0.039-0.029,0.086-0.056,0.127-0.083l1.737,0.917
	c-0.235,0.173-0.487,0.333-0.752,0.477c-0.267,0.144-0.556,0.276-0.852,0.395c-0.296,0.118-0.615,0.224-0.95,0.313
	c-0.325,0.093-0.675,0.168-1.04,0.231c-0.52,0.087-1.028,0.146-1.526,0.177c-0.498,0.027-0.983,0.024-1.458-0.006
	c-0.476-0.035-0.933-0.097-1.38-0.188c-0.446-0.095-0.879-0.218-1.3-0.369c-0.416-0.156-0.794-0.33-1.138-0.525
	c-0.338-0.194-0.641-0.407-0.903-0.645c-0.261-0.237-0.487-0.491-0.672-0.766c-0.186-0.278-0.33-0.57-0.44-0.885
	c-0.109-0.317-0.17-0.621-0.182-0.922c-0.011-0.3,0.021-0.593,0.106-0.878c0.081-0.287,0.209-0.564,0.385-0.838
	c0.176-0.271,0.396-0.536,0.667-0.794c0.021-0.025,0.043-0.046,0.07-0.065c0.022-0.025,0.045-0.044,0.073-0.063
	c0.023-0.023,0.052-0.043,0.075-0.062C71.815,41.252,71.842,41.233,71.866,41.214"/>
<path fill="#FFFFFF" d="M76.246,39.413c0.242-0.042,0.484-0.072,0.715-0.1c0.238-0.024,0.476-0.044,0.71-0.054
	c0.234-0.011,0.467-0.014,0.697-0.011c0.222,0.003,0.45,0.015,0.677,0.035l-0.969,1.345l-0.008-0.001l-2.072-1.165
	c0.021-0.007,0.04-0.01,0.059-0.014c0.02-0.004,0.039-0.009,0.066-0.013c0.02-0.004,0.038-0.008,0.058-0.012
	S76.217,39.417,76.246,39.413"/>
</svg>
