<?xml version="1.0" encoding="utf-8"?>
<!-- Generator: Adobe Illustrator 15.0.0, SVG Export Plug-In . SVG Version: 6.00 Build 0)  -->
<!DOCTYPE svg PUBLIC "-//W3C//DTD SVG 1.1//EN" "http://www.w3.org/Graphics/SVG/1.1/DTD/svg11.dtd">
<svg version="1.1" id="Layer_1" xmlns="http://www.w3.org/2000/svg" xmlns:xlink="http://www.w3.org/1999/xlink" x="0px" y="0px"
	 width="150px" height="99px" viewBox="0 0 150 99" enable-background="new 0 0 150 99" xml:space="preserve">
<g>
	<path fill="#1D2829" d="M47.181,62.924L47.37,63.3c0,0,10.161-5.457,13.737-7.527c3.575-2.069,7.34-3.294,10.255-7.528
		c2.917-4.232,2.54-7.526,2.54-10.914c0-3.388,0.188-19.041,0.188-19.041h-0.468c0,0,0.563,13.301-7.904,26.191
		C57.249,57.371,54.709,57.748,47.181,62.924"/>
	<path fill="#1D2829" d="M75.974,18.308l-0.422-0.019c0,0-0.184,11.532-0.116,15.663c0.066,4.132-0.699,8.014,1.578,12.625
		c2.277,4.607,5.337,5.882,8.294,7.534c2.959,1.65,16.418,9.376,16.418,9.376l0.227-0.412c0,0-11.769-5.921-18.902-19.597
		C75.918,29.804,76.826,27.402,75.974,18.308"/>
	<path fill="#1D2829" d="M100.615,65.232l0.229-0.354c0,0-9.834-6.029-13.422-8.073c-3.591-2.048-6.544-4.68-11.672-5.066
		c-5.125-0.387-7.78,1.597-10.707,3.305c-2.927,1.707-16.891,9.606-16.891,9.606l0.236,0.407c0,0,11.555-7.365,26.957-6.545
		C90.747,59.329,92.352,61.335,100.615,65.232"/>
	<polygon fill="#1D2829" points="50.045,66.928 46.888,69.727 46.888,74.753 53.025,74.753 53.025,75.821 51.935,76.864 
		46.888,76.864 46.888,79.71 52.846,79.71 55.982,76.753 55.982,71.908 49.802,71.908 49.802,70.886 50.778,69.861 55.825,69.861 
		55.825,66.951 	"/>
	<polygon fill="#1D2829" points="57.603,66.951 66.54,66.951 63.961,69.885 60.561,69.885 60.561,71.863 63.05,71.863 63.05,74.621 
		60.605,74.621 60.605,76.775 64.962,76.775 64.962,79.665 57.583,79.665 	"/>
	<polygon fill="#1D2829" points="69.629,66.951 66.961,69.618 66.961,79.688 74.077,79.688 74.077,76.753 69.651,76.753 	"/>
	<polygon fill="#1D2829" points="75.744,67.019 84.546,67.019 82.035,69.906 78.655,69.906 78.655,71.93 81.19,71.93 81.19,74.708 
		78.677,74.708 78.677,76.842 82.212,76.842 84.656,79.754 75.765,79.754 	"/>
	<polygon fill="#1D2829" points="87.147,67.019 83.968,70.619 83.968,76.242 86.946,79.731 91.236,79.731 94.594,76.264 
		91.393,76.264 90.37,77.243 88.459,77.243 86.635,75.11 86.635,71.772 88.368,69.995 90.304,69.995 91.148,70.951 94.594,70.951 
		91.215,66.994 	"/>
	<polygon fill="#1D2829" points="93.371,66.951 102.285,66.951 102.285,69.995 100.662,69.995 100.662,79.621 97.817,79.621 
		97.817,70.019 95.816,70.019 	"/>
	<path fill="#1D2829" d="M95.395,79.383h0.062c0.099,0,0.171,0.025,0.22,0.073c0.046,0.05,0.07,0.119,0.07,0.212
		c0,0.092-0.027,0.165-0.075,0.22c-0.052,0.055-0.113,0.083-0.185,0.083c-0.024,0-0.055-0.004-0.092-0.012V79.383z M94.916,79.37
		c0.06,0.007,0.1,0.022,0.118,0.046c0.02,0.027,0.028,0.084,0.028,0.175v0.782c0,0.092-0.014,0.156-0.04,0.188
		c-0.021,0.023-0.064,0.036-0.132,0.036v0.058h0.7v-0.058c-0.08-0.003-0.137-0.019-0.159-0.045
		c-0.026-0.027-0.037-0.087-0.037-0.179v-0.327h0.074l0.34,0.608h0.4v-0.058c-0.03-0.008-0.056-0.018-0.071-0.03
		c-0.033-0.031-0.067-0.076-0.1-0.135l-0.229-0.412c0.098-0.027,0.172-0.073,0.221-0.133c0.048-0.063,0.073-0.133,0.073-0.21
		c0-0.125-0.054-0.221-0.166-0.291c-0.079-0.049-0.22-0.072-0.421-0.072h-0.6V79.37 M94.968,78.976
		c-0.188,0.102-0.334,0.245-0.44,0.433c-0.104,0.188-0.157,0.384-0.157,0.589c0,0.202,0.052,0.397,0.156,0.582
		c0.104,0.188,0.248,0.333,0.433,0.435c0.187,0.104,0.381,0.155,0.583,0.155c0.204,0,0.397-0.052,0.584-0.155
		c0.187-0.102,0.331-0.246,0.436-0.435c0.103-0.185,0.157-0.38,0.157-0.582c0-0.205-0.055-0.4-0.161-0.589
		c-0.104-0.188-0.251-0.331-0.438-0.433c-0.189-0.103-0.38-0.152-0.578-0.152C95.346,78.823,95.154,78.873,94.968,78.976
		 M96.046,79.108c0.162,0.088,0.288,0.213,0.378,0.378c0.091,0.165,0.138,0.334,0.138,0.511c0,0.176-0.046,0.344-0.135,0.506
		c-0.09,0.161-0.215,0.289-0.377,0.376c-0.162,0.092-0.331,0.135-0.508,0.135c-0.174,0-0.343-0.043-0.505-0.135
		c-0.161-0.087-0.287-0.215-0.378-0.376c-0.09-0.162-0.136-0.33-0.136-0.506c0-0.177,0.046-0.346,0.138-0.511
		c0.093-0.165,0.22-0.29,0.38-0.378c0.165-0.087,0.332-0.13,0.501-0.13C95.716,78.979,95.884,79.021,96.046,79.108"/>
</g>
</svg>
