<?xml version="1.0" encoding="utf-8"?>
<!-- Generator: Adobe Illustrator 15.0.0, SVG Export Plug-In . SVG Version: 6.00 Build 0)  -->
<!DOCTYPE svg PUBLIC "-//W3C//DTD SVG 1.1//EN" "http://www.w3.org/Graphics/SVG/1.1/DTD/svg11.dtd">
<svg version="1.1" id="Layer_1" xmlns="http://www.w3.org/2000/svg" xmlns:xlink="http://www.w3.org/1999/xlink" x="0px" y="0px"
	 width="350px" height="99px" viewBox="0 0 350 99" enable-background="new 0 0 350 99" xml:space="preserve">
<g>
	<g>
		<g>
			<path fill="#EE3426" d="M283.22,16.637c-3.573,0-6.931,0.553-10.201,1.62c13.526-2.912,26.846,2.63,31.752,13.992
				c5.552,13.149-2.449,28.996-17.901,35.585c-13.667,5.825-28.828,2.011-35.772-8.265c4.121,13.866,16.899,24.068,32.125,24.068
				c18.528,0,33.5-14.97,33.5-33.5C316.724,31.687,301.75,16.637,283.22,16.637z"/>
			<path fill="#B22028" d="M286.87,67.832c15.453-6.589,23.454-22.436,17.902-35.584c-4.907-11.362-18.226-16.904-31.754-13.992
				c-13.397,4.297-23.298,16.925-23.298,31.881c0,3.303,0.522,6.473,1.376,9.432C258.043,69.843,273.203,73.658,286.87,67.832z"/>
			<g>
				<path fill="#FFFFFF" d="M291.807,65.329V30.888c0-0.69-0.555-1.244-1.172-1.244h-7.918c-0.559,0-0.85,0.133-1.225,0.291
					l-10.16,5.225c-0.579,0.263-0.845,0.581-0.845,1.243v5.58c0,0.679,0.551,1.225,1.147,1.225h6.55v27.095
					c2.84-0.493,5.852-1.308,8.685-2.471C288.715,67.048,290.359,66.208,291.807,65.329z"/>
				<path fill="none" d="M279.354,75.66h11.281c0.616,0,1.171-0.559,1.171-1.163v-9.169c-1.447,0.878-3.091,1.72-4.935,2.504
					c-2.833,1.159-5.844,1.976-8.683,2.471v4.192C278.188,75.102,278.744,75.66,279.354,75.66z"/>
			</g>
		</g>
		<g>
			<g>
				<path fill="#214078" d="M44.902,52.173c-5.554,0-9.98-1.344-10.802-1.611c-0.422-0.148-0.672-0.458-0.672-0.857v-0.253
					l0.635-2.796c0.038-0.419,0.325-0.553,0.706-0.553c0.039,0,0.154,0,0.288,0.02c0.863,0.154,5.268,1.4,9.405,1.4
					c3.487,0,6.647-0.999,6.647-4.618c0-3.714-3.2-4.118-7.43-4.692c-4.598-0.689-10.557-1.936-10.557-9.255
					c0-7.488,5.559-9.441,12.184-9.441c5,0,9.155,1.226,10.112,1.416c0.536,0.136,0.804,0.518,0.804,0.94v0.173l-0.65,2.852
					c-0.02,0.288-0.306,0.574-0.69,0.574c-0.02,0-0.04-0.018-0.135-0.018c-1.99-0.5-5.172-1.341-9-1.341
					c-3.18,0-6.512,0.652-6.512,4.251c0,3.502,3.6,4.042,7.449,4.595c5,0.805,10.688,1.517,10.688,9.524
					C57.372,49.973,51.28,52.173,44.902,52.173z"/>
				<path fill="#214078" d="M99.429,51.638c-1.515,0.306-3.585,0.576-5.957,0.576c-4.676,0-10.364-0.442-10.364-7.241
					c0-5.534,3.467-6.187,6.915-6.743l7.624-1.247v-1.38c0-1.148-0.135-2.067-1.224-2.505c-0.688-0.288-1.686-0.424-3.219-0.424
					c-2.912,0-6.09,0.844-7.431,1.229c-0.058,0-0.175,0.019-0.289,0.019c-0.172,0-0.419-0.116-0.441-0.402l-0.573-2.644V30.72
					c0-0.404,0.287-0.554,0.459-0.67c1.072-0.402,4.98-1.418,9.386-1.418c3.046,0,5.117,0.42,6.418,1.147
					c2.201,1.227,2.624,3.201,2.624,5.537v11.879C103.355,50.393,102.34,50.951,99.429,51.638z M97.645,40.718l-5.285,0.845
					c-1.782,0.269-3.429,0.535-3.429,3.311c0,3.332,2.74,3.602,4.732,3.602c1.744,0,3.046-0.286,3.983-0.575L97.645,40.718
					L97.645,40.718z"/>
				<path fill="#214078" d="M118.692,32.982c-2.625,0-4.846,0.266-6.073,0.554v17.531c0,0.325-0.266,0.592-0.592,0.592h-4.407
					c-0.271,0-0.708-0.267-0.708-0.592V32.523c0-1.666,0.976-2.205,3.046-2.779c1.838-0.652,4.882-1.071,7.353-1.091h0.708
					c0.653,0,0.653,0,0.943,0.136c0.151,0.037,0.324,0.264,0.324,0.689v2.776C119.287,32.673,119.267,32.982,118.692,32.982z"/>
				<path fill="#214078" d="M141.129,42.08c0,0.438-0.269,0.977-0.938,0.977h-14.31c0,1.954,0.557,3.046,1.685,3.91
					c1.112,0.936,2.758,1.34,5.097,1.34c2.643,0,4.616-0.673,5.975-1.075c0.117-0.021,0.135-0.021,0.248-0.021
					c0.193,0,0.442,0.156,0.576,0.576l0.557,2.202c0,0.02,0.018,0.136,0.018,0.248c0,0.311-0.171,0.461-0.535,0.593
					c-1.418,0.654-4.331,1.383-7.758,1.383c-8.352,0-11.667-3.315-11.667-11.665c0-8.123,2.222-11.914,10.556-11.914
					c4.386,0,7.029,1.11,8.559,3.102c1.496,1.937,1.935,4.695,1.935,8.276L141.129,42.08L141.129,42.08z M135.058,35.701
					c-0.557-2.354-1.821-3.161-4.329-3.161c-2.896,0-4.12,0.844-4.563,3.028c-0.287,1.148-0.287,2.39-0.381,3.869l9.655-0.099
					C135.441,37.959,135.347,36.834,135.058,35.701z"/>
				<path fill="#214078" d="M189.889,51.638c-1.438,0.306-3.584,0.576-5.88,0.576c-4.671,0-10.44-0.442-10.44-7.241
					c0-5.534,3.544-6.187,6.914-6.743l7.703-1.247v-1.38c0-1.148-0.211-2.067-1.306-2.505c-0.607-0.288-1.684-0.424-3.138-0.424
					c-2.989,0-6.092,0.844-7.431,1.229c-0.11,0-0.252,0.019-0.291,0.019c-0.246,0-0.421-0.116-0.517-0.402l-0.572-2.644V30.72
					c0-0.404,0.285-0.554,0.533-0.67c1.047-0.402,4.982-1.418,9.387-1.418c3.05,0,5.037,0.42,6.418,1.147
					c2.201,1.227,2.543,3.201,2.543,5.537v11.879C193.812,50.393,192.878,50.951,189.889,51.638z M188.186,40.718l-5.285,0.845
					c-1.861,0.269-3.503,0.535-3.503,3.311c0,3.332,2.737,3.602,4.883,3.602c1.667,0,2.893-0.286,3.905-0.575V40.718L188.186,40.718
					z"/>
				<path fill="#214078" d="M216.774,51.657h-4.421c-0.326,0-0.614-0.267-0.614-0.594V35.873c0-2.49-1.033-3.333-3.275-3.333
					c-2.529,0-5.308,0.708-5.308,0.708v17.816c0,0.327-0.264,0.594-0.59,0.594h-4.406c-0.5,0-0.785-0.267-0.785-0.594V32.54
					c0-1.649,0.82-2.202,3.278-2.798c2.199-0.652,5.8-1.11,8.56-1.11c5.307,0,8.314,1.303,8.314,6.512v15.919
					C217.526,51.391,217.257,51.657,216.774,51.657z"/>
				<path fill="#214078" d="M241.675,51.253c0,0.23-0.232,0.406-0.346,0.406h-5.785c-0.246,0-0.495,0-0.744-0.267l-6.65-9.025
					h-1.416v8.699c0,0.325-0.247,0.592-0.591,0.592h-4.424c-0.326,0-0.768-0.267-0.768-0.592v-30.02c0-0.533,0.249-0.802,0.785-0.86
					l4.178-0.783h0.229c0.325,0,0.592,0.265,0.592,0.783v18.315h1.415l6.864-9.024c0.228-0.268,0.308-0.287,0.555-0.287l5.249,0.133
					c0.286,0,0.343,0.173,0.343,0.326c0,0.117-0.019,0.133-0.041,0.25l-8.063,10.229l8.58,10.957
					C241.657,51.103,241.675,51.217,241.675,51.253z"/>
				<path fill="#214078" d="M66.228,47.77"/>
				<path fill="#214078" d="M71.919,28.633c-2.814,0-6.128,0.442-8.735,1.302c-1.933,0.652-2.66,1.248-2.66,3.543v24.648
					c0,0.342,0.304,0.746,0.959,0.604c0.585-0.056,4.038-0.734,4.038-0.734c0.539-0.102,0.71-0.368,0.71-0.84v-5.619
					c1.523,0.397,3.454,0.675,5.556,0.675c8.006,0,9.521-5.002,9.521-11.78C81.303,33.633,80.211,28.633,71.919,28.633z
					 M70.349,48.307c-2.337,0-4.119-0.537-4.119-0.537V33.346c0,0,2.511-0.69,4.542-0.69c3.217,0,4.615,0.709,4.615,7.643
					C75.387,46.812,74.235,48.307,70.349,48.307z"/>
				<path fill="#214078" d="M159.968,51.657h-14.271c-0.4,0-0.708-0.29-0.708-0.694V20.644c0-0.4,0.307-0.688,0.708-0.688h14.29
					c7.3,0,10.229,2.88,10.229,8.016c0,4.559-2.508,6.206-6.398,7.319c4.313,0.699,7.488,3.054,7.488,8.072
					C171.306,49.148,167.285,51.657,159.968,51.657z M159.412,24.378h-8.293v9.156l8.007-0.304c3.217-0.133,4.883-1.265,4.883-4.56
					C164.01,25.645,162.591,24.378,159.412,24.378z M159.163,37.772l-8.043-0.271v9.73h8.043c4.387,0,5.785-1.837,5.785-4.461
					C164.947,39.205,163.818,37.827,159.163,37.772z"/>
			</g>
			<g>
				<path fill="#214078" d="M170.368,79.497c0,0.238-0.128,0.278-0.285,0.278h-2.652c-0.247,0-0.382-0.052-0.412-0.294l-1.917-5.875
					h-5.98l-1.906,5.892c-0.018,0.227-0.174,0.279-0.324,0.279h-2.728c-0.148,0-0.285-0.039-0.285-0.267
					c0-0.013,0-0.028,0.011-0.069l5.411-16.063c0.097-0.228,0.263-0.332,0.411-0.332h4.853c0.226,0,0.394,0.104,0.41,0.332
					l5.383,16.052C170.368,79.461,170.368,79.486,170.368,79.497z M162.591,65.339h-0.972l-1.807,5.816h4.604L162.591,65.339z"/>
				<path fill="#214078" d="M201.802,79.775h-6.715c-0.246,0-0.473-0.067-0.473-0.314v-16.06c0-0.241,0.226-0.355,0.473-0.355h6.715
					c5.548,0,7.731,2.065,7.731,8.382C209.533,77.592,207.352,79.775,201.802,79.775z M201.479,65.356h-3.563v12.139h3.563
					c3.361,0,4.726-1.048,4.726-6.079C206.204,66.233,204.84,65.356,201.479,65.356z"/>
				<path fill="#214078" d="M225.383,79.775h-10.836c-0.244,0-0.323-0.067-0.323-0.314v-16.06c0-0.241,0.08-0.355,0.323-0.355
					h10.824c0.255,0,0.47,0.114,0.47,0.348v1.707c0,0.249-0.213,0.444-0.47,0.444h-7.857v4.292h7.556
					c0.246,0,0.313,0.224,0.313,0.472v1.719c0,0.237-0.067,0.306-0.313,0.306h-7.556v4.97h7.867c0.246,0,0.473,0.221,0.473,0.46
					v1.699C225.854,79.706,225.627,79.775,225.383,79.775z"/>
				<path fill="#214078" d="M151.112,79.775h-10.527c-0.168,0-0.391-0.061-0.391-0.302V63.401c0-0.241,0.137-0.28,0.382-0.29
					l2.61-0.351c0.179-0.079,0.308,0.111,0.308,0.339v14.153h7.619c0.245,0,0.393,0.069,0.393,0.316v1.893
					C151.505,79.706,151.357,79.775,151.112,79.775z"/>
				<path fill="#214078" d="M188.771,79.775h-5.234c-0.245,0-0.313-0.233-0.343-0.314l-5.557-13.877h-0.793l0.236,13.888
					c0,0.242-0.224,0.304-0.475,0.304h-2.496c-0.167,0-0.314-0.062-0.314-0.304V63.394c0-0.233,0.158-0.348,0.325-0.348h5.497
					c0.246,0,0.325,0.103,0.513,0.34l5.609,14.432h0.291l-0.057-14.416c0-0.282,0.242-0.357,0.357-0.357h2.413
					c0.278,0,0.354,0.082,0.354,0.357v16.072C189.097,79.712,189.022,79.775,188.771,79.775z"/>
				<path fill="#214078" d="M113.295,80.037c-2.927,0-5.274-0.598-5.697-0.818c-0.266-0.046-0.413-0.279-0.384-0.576l0.285-1.434
					c0.097-0.274,0.275-0.447,0.548-0.274c0.521,0.04,2.782,0.64,4.98,0.64c1.906,0,3.486-0.548,3.486-2.482
					c0-1.951-1.678-2.03-3.886-2.484c-2.399-0.318-5.571-0.912-5.571-4.781c0-4.079,2.928-5.002,6.406-5.002
					c2.72,0,4.851,0.578,5.379,0.693c0.275,0.149,0.445,0.357,0.415,0.643l-0.296,1.465c-0.109,0.285-0.265,0.307-0.529,0.285
					c-1.102-0.255-2.664-0.638-4.703-0.638c-1.67,0-3.459,0.324-3.459,2.248c0,1.755,1.923,2.033,3.979,2.318
					c2.64,0.488,5.675,0.813,5.675,5.155C119.923,78.91,116.643,80.037,113.295,80.037z"/>
				<path fill="#214078" d="M136.294,65.545h-5.244v13.927c0,0.24-0.147,0.304-0.315,0.304h-2.504c-0.245,0-0.393-0.063-0.393-0.304
					V65.545h-5.255c-0.168,0-0.392-0.195-0.392-0.444v-1.707c0-0.235,0.223-0.35,0.392-0.35h13.71c0.253,0,0.393,0.114,0.393,0.357
					v1.699C136.686,65.35,136.548,65.545,136.294,65.545z"/>
				<path fill="#214078" d="M242.438,65.545h-5.243v13.927c0,0.24-0.224,0.304-0.473,0.304h-2.503c-0.092,0-0.314-0.063-0.314-0.304
					V65.545h-5.253c-0.245,0-0.313-0.195-0.313-0.444v-1.707c0-0.235,0.068-0.35,0.313-0.35h13.786c0.1,0,0.315,0.114,0.315,0.357
					v1.699C242.753,65.35,242.537,65.545,242.438,65.545z"/>
				<path fill="#214078" d="M101.553,65.124c1.118,1.599,1.488,3.777,1.488,6.312c0,5.234-1.365,8.625-7.992,8.625
					c-2.269,0-4.017-0.354-5.158-1.179l-1.5,1.689c-0.031,0.035-0.137,0.047-0.17,0.047c-0.106,0-0.137-0.012-0.242-0.035
					l-0.994-0.818c-0.116-0.026-0.128-0.057-0.128-0.233c0-0.033,0.011-0.056,0.116-0.092l1.554-1.895
					c-1.1-1.447-1.396-3.614-1.396-6.11c0-5.242,1.374-8.676,7.916-8.676c2.324,0,3.985,0.39,5.127,1.195l1.511-1.82
					c0.103-0.075,0.135-0.087,0.243-0.087c0.029,0,0.138,0.012,0.167,0.031l1.069,0.812c0.029,0.077,0.053,0.217,0.053,0.246
					c0,0.028-0.023,0.104-0.043,0.25L101.553,65.124z M95.049,65.09c-4.065,0-4.575,2.2-4.575,6.338
					c0,1.383,0.106,2.513,0.382,3.389l7.513-8.85C97.672,65.379,96.681,65.09,95.049,65.09z M99.31,67.839l-7.608,8.871
					c0.686,0.601,1.777,1.063,3.348,1.063c4.146,0,4.665-2.214,4.665-6.344C99.713,70.022,99.605,68.715,99.31,67.839z"/>
			</g>
		</g>
	</g>
</g>
</svg>
