<?xml version="1.0" encoding="utf-8"?>
<!-- Generator: Adobe Illustrator 15.0.0, SVG Export Plug-In . SVG Version: 6.00 Build 0)  -->
<!DOCTYPE svg PUBLIC "-//W3C//DTD SVG 1.1//EN" "http://www.w3.org/Graphics/SVG/1.1/DTD/svg11.dtd">
<svg version="1.1" id="Layer_1" xmlns="http://www.w3.org/2000/svg" xmlns:xlink="http://www.w3.org/1999/xlink" x="0px" y="0px"
	 width="100px" height="100px" viewBox="0 0 100 100" enable-background="new 0 0 100 100" xml:space="preserve">
<radialGradient id="SVGID_1_" cx="53.0527" cy="-5.957" r="42.8555" gradientTransform="matrix(0.6864 0 0 0.6864 14.9182 35.5046)" gradientUnits="userSpaceOnUse">
	<stop  offset="0" style="stop-color:#FFFFFF"/>
	<stop  offset="1" style="stop-color:#E9E9EA"/>
</radialGradient>
<circle fill="url(#SVGID_1_)" stroke="#A7A9AC" cx="51.333" cy="31.416" r="29.415"/>
<g>
	<path fill="#58595B" d="M29.854,83.319c-1.216,0.37-3.173,0.68-4.554,0.68c-4.904,0-6.202-2.74-6.202-7.273
		c0-4.903,1.525-7.273,6.12-7.273c1.339,0,2.452,0.124,3.997,0.351l-0.248,3.028c-1.689-0.288-2.431-0.391-3.523-0.391
		c-1.937,0-2.781,0.617-2.781,4.306c0,2.246,0.35,3.194,0.948,3.709c0.433,0.37,0.865,0.535,1.833,0.535
		c0.392,0,0.577-0.041,1.009-0.103v-4.079h3.4V83.319z"/>
	<path fill="#58595B" d="M37.724,79.898c0,1.565-0.186,2.72-0.825,3.379c-0.577,0.557-1.565,0.722-3.07,0.722
		c-0.721,0-2.225-0.062-3.029-0.288l0.186-2.968c1.483,0.228,1.916,0.268,2.555,0.268c0.638,0,0.7-0.309,0.7-1.133l0.021-10.261
		h3.462V79.898z"/>
	<path fill="#58595B" d="M49.96,82.659c-0.927,0.928-2.286,1.34-4.244,1.34c-1.298,0-2.329-0.186-3.153-0.557l-0.948,1.607h-1.813
		l1.504-2.556c-1.071-1.174-1.442-3.069-1.442-5.769c0-2.843,0.412-4.801,1.586-5.976c0.927-0.927,2.308-1.318,4.265-1.318
		c1.174,0,2.143,0.145,2.925,0.454l0.865-1.484h1.813l-1.38,2.349h0.02c1.175,1.175,1.586,3.111,1.586,5.955
		S51.136,81.485,49.96,82.659z M45.696,72.44c-1.813,0-2.329,0.351-2.329,4.285c0,0.845,0.021,1.524,0.083,2.081l3.585-6.181
		C46.706,72.461,46.252,72.44,45.696,72.44z M47.921,74.232l-3.75,6.449c0.35,0.268,0.845,0.309,1.525,0.309
		c1.813,0,2.349-0.35,2.349-4.306C48.045,75.634,48.003,74.852,47.921,74.232z"/>
	<path fill="#58595B" d="M60.715,83.875h-3.936L52.74,69.617h3.73l1.896,7.809l0.433,2.617h0.041l0.433-2.638l1.813-7.809
		l3.667,0.021L60.715,83.875z"/>
	<path fill="#58595B" d="M66.441,83.813V69.617h3.503v14.196H66.441z"/>
	<path fill="#58595B" d="M79.503,83.813l-2.514-5.11h-0.04l-0.969,1.545l0.021,3.565h-3.358V69.617h3.358l-0.021,4.821h0.041
		l2.802-4.821h3.935l-3.832,6.078l4.431,8.118H79.503z"/>
	<path fill="#58595B" d="M23.817,98.179v-3.794h-3.675v3.794h-0.97v-8.248h0.97v3.567h3.675v-3.567h0.97v8.248H23.817z"/>
	<path fill="#58595B" d="M29.576,98.179l-0.072-0.311h-0.036c-0.599,0.359-1.209,0.431-1.724,0.431c-0.91,0-1.628-0.526-1.628-1.544
		c0-0.563,0.12-1.174,0.778-1.509c0.67-0.323,1.772-0.323,2.479-0.348v-0.909c0-0.527-0.359-0.755-1.006-0.755
		c-0.515,0-1.293,0.144-1.748,0.3l-0.06-0.862c0.646-0.155,1.089-0.203,1.891-0.203c1.054,0,1.82,0.347,1.82,1.389v4.321H29.576z
		 M29.373,95.629c-0.491,0.012-1.497,0.036-1.988,0.299c-0.275,0.145-0.334,0.491-0.334,0.803c0,0.419,0.251,0.766,0.85,0.766
		c0.539,0,0.969-0.107,1.473-0.406V95.629z M28.438,91.75c-0.479,0-0.874-0.383-0.874-0.873c0-0.479,0.395-0.874,0.874-0.874
		c0.491,0,0.874,0.395,0.874,0.874C29.313,91.367,28.929,91.75,28.438,91.75z M28.438,90.505c-0.203,0-0.371,0.168-0.371,0.372
		c0,0.215,0.168,0.383,0.371,0.383c0.216,0,0.383-0.168,0.383-0.383C28.822,90.673,28.654,90.505,28.438,90.505z"/>
	<path fill="#58595B" d="M36.016,98.179h-0.909v-4.166c0-0.526-0.467-0.742-0.766-0.742c-0.743,0-1.473,0.216-1.772,0.443v4.465
		h-0.91v-5.603h0.706l0.072,0.336l0.024,0.012c0.802-0.419,1.353-0.455,1.975-0.455c0.73,0,1.58,0.347,1.58,1.389V98.179z"/>
	<path fill="#58595B" d="M40.996,98.179l-0.083-0.335h-0.036c-0.586,0.347-1.173,0.443-1.664,0.443c-1.473,0-2.06-0.91-2.06-2.897
		c0-2.107,0.683-2.921,2.311-2.921c0.467,0,0.91,0.06,1.293,0.215h0.024V89.56h0.91v8.619H40.996z M40.781,93.558
		c-0.479-0.203-0.802-0.275-1.317-0.275c-0.921,0-1.376,0.42-1.376,2.107c0,1.557,0.347,2.06,1.173,2.06
		c0.61,0,1.233-0.204,1.521-0.384V93.558z"/>
	<path fill="#58595B" d="M45.725,98.287c-0.479,0-1.065-0.097-1.664-0.443h-0.024l-0.096,0.335h-0.694V89.56h0.921v3.315
		l0.012-0.012c0.623-0.311,1.065-0.407,1.556-0.407c1.473,0,2.06,0.935,2.06,2.922C47.796,96.755,47.389,98.287,45.725,98.287z
		 M45.725,93.294c-0.61,0-1.305,0.264-1.568,0.468v3.304c0.287,0.18,0.922,0.384,1.532,0.384c1.054,0,1.173-1.293,1.173-2.071
		C46.862,93.821,46.539,93.294,45.725,93.294z"/>
	<path fill="#58595B" d="M52.154,98.179l-0.072-0.311h-0.036c-0.599,0.359-1.21,0.431-1.724,0.431c-0.91,0-1.628-0.526-1.628-1.544
		c0-0.563,0.12-1.174,0.778-1.509c0.671-0.323,1.772-0.323,2.479-0.348v-0.909c0-0.527-0.359-0.755-1.006-0.755
		c-0.515,0-1.293,0.144-1.748,0.3l-0.06-0.862c0.646-0.155,1.09-0.203,1.892-0.203c1.054,0,1.819,0.347,1.819,1.389v4.321H52.154z
		 M51.95,95.629c-0.491,0.012-1.496,0.036-1.988,0.299c-0.275,0.145-0.335,0.491-0.335,0.803c0,0.419,0.251,0.766,0.85,0.766
		c0.538,0,0.97-0.107,1.473-0.406V95.629z"/>
	<path fill="#58595B" d="M54.308,98.179V89.56h0.922v8.619H54.308z"/>
	<path fill="#58595B" d="M56.811,98.179V89.56h0.922v8.619H56.811z"/>
	<path fill="#58595B" d="M62.532,98.179l-1.364-2.454l-0.155-0.311h-0.036l-0.755,0.934v1.831h-0.921V89.56h0.921v5.446h0.024
		l0.228-0.299l1.688-2.131h1.125l-1.688,2.084l1.939,3.519H62.532z"/>
	<path fill="#58595B" d="M64.447,98.179V89.56h0.922v8.619H64.447z"/>
	<path fill="#58595B" d="M70.481,98.179l-0.084-0.335l-0.023-0.012c-0.803,0.406-1.353,0.455-1.976,0.455
		c-0.729,0-1.58-0.348-1.58-1.39v-4.321h0.91v4.166c0,0.527,0.466,0.742,0.778,0.742c0.741,0,1.472-0.215,1.759-0.443v-4.465h0.91
		v5.603H70.481z"/>
	<path fill="#58595B" d="M75.15,98.287c-0.479,0-1.065-0.097-1.664-0.443h-0.023l-0.097,0.335h-0.694V89.56h0.922v3.315l0.013-0.012
		c0.622-0.311,1.065-0.407,1.556-0.407c1.473,0,2.06,0.935,2.06,2.922C77.222,96.755,76.814,98.287,75.15,98.287z M75.15,93.294
		c-0.61,0-1.305,0.264-1.568,0.468v3.304c0.287,0.18,0.922,0.384,1.532,0.384c1.054,0,1.173-1.293,1.173-2.071
		C76.287,93.821,75.965,93.294,75.15,93.294z"/>
	<path fill="#58595B" d="M80.956,98.287c-0.479,0-1.065-0.097-1.664-0.443h-0.023l-0.096,0.335h-0.694V89.56H79.4v3.315l0.012-0.012
		c0.623-0.311,1.065-0.407,1.557-0.407c1.472,0,2.059,0.935,2.059,2.922C83.027,96.755,82.62,98.287,80.956,98.287z M80.956,93.294
		c-0.61,0-1.305,0.264-1.568,0.468v3.304c0.288,0.18,0.922,0.384,1.532,0.384c1.054,0,1.174-1.293,1.174-2.071
		C82.094,93.821,81.771,93.294,80.956,93.294z"/>
</g>
<g>
	<path fill="none" stroke="#A7A9AC" d="M65.012,24.602c0.801,0.73,7.305,6.96,7.931,7.656c0.627,0.696,0.557,1.531,0.557,2.366
		c0,0.835-1.879,9.326-2.784,10.648c-0.904,1.323-8.839,5.29-11.136,5.777s-2.784,0.069-3.897-0.557
		c-1.114-0.627-6.125-5.342-6.891-5.977c-0.766-0.636-0.823-1.709-0.487-3.071c0.335-1.363,2.019-9.132,2.228-10.029
		c0.208-0.898,0.756-3.042,1.703-3.389s8.458-3.077,9.398-3.425C62.572,24.254,64.183,23.843,65.012,24.602z"/>
	<path fill="none" stroke="#A7A9AC" d="M31.965,53.555c-0.139-0.626-0.227-2.227,0.122-3.409c0.348-1.184,1.531-4.107,1.74-4.663
		c0.208-0.558,1.162-0.911,2.366-0.966c1.205-0.056,9.466-0.496,10.092-0.496c0.626,0,1.817-0.115,2.506,0.496
		s7.099,6.472,7.447,6.747c0.349,0.273,0.904,1.108,0.487,2.152c-0.418,1.045-3.647,6.928-4.412,7.415"/>
	<path fill="none" stroke="#A7A9AC" d="M21.982,29.453c0.373-0.396,0.791-1.353,1.891-0.945c1.1,0.409,3.5,1.415,4.29,1.685
		c0.791,0.27,1.232,1.881,1.342,2.482c0.11,0.602,1.29,4.759,1.764,5.908c0.473,1.149,1.361,3.056,1.793,3.648
		c0.431,0.592,1.21,2.107,0.764,3.25c-0.447,1.142-1.652,4.297-1.871,5.104c-0.218,0.807-1.41,1.644-1.41,1.644"/>
	<path fill="none" stroke="#A7A9AC" d="M35.038,6.922c1.135,0.298,3.35,1.094,4.079,1.462c0.495,0.25,2.409,0.726,3.434,0.244
		c1.025-0.48,5.324-2.227,6.289-2.48c0.966-0.253,3.911-1.004,4.545-0.996C54.019,5.16,54.638,4.626,54.916,4s0.418-1.67,0.418-1.67
		c-0.14,1.044-0.847,2.301,0.388,3.221c0.443,0.33,6.796,4.105,7.598,4.604c0.803,0.5,1.65,0.557,2.67,0
		c1.02-0.556,3.723-1.706,3.723-1.706s-2.059,0.841-3.242,1.397c-1.184,0.557-1.458,1.911-1.458,2.924
		c0,1.322-0.634,7.146-0.761,8.345c-0.128,1.198,0.261,3.191,0.761,3.487c0.501,0.295,6.186,5.923,7.096,6.814
		c0.911,0.89,1.67,0.494,2.436,0c0.767-0.494,5.108-4.237,5.805-4.863"/>
	<path fill="none" stroke="#A7A9AC" d="M79.764,27.038c-1.044,0.975-4.344,3.798-4.956,4.194c-0.613,0.397-1.174,2.455-1.309,3.392
		c-0.134,0.937-1.906,8.392-2.102,8.974c-0.196,0.582-0.267,2.419,0.219,3.14c0.484,0.721,2.415,3.39,2.415,3.39
		s-2.342-3.322-2.759-3.88c-0.418-0.557-1.02-0.511-2.233,0.34c-1.213,0.851-8.863,4.3-10.087,4.677
		c-1.223,0.375-2.087,1.595-2.469,2.693"/>
	<path fill="none" stroke="#A7A9AC" d="M47.701,27.038"/>
	<path fill="none" stroke="#A7A9AC" d="M23.257,22.612c-0.069,0.696-1.13,5.279,0.616,5.896c1.324,0.468,4.176,1.592,4.733,1.87
		c0.557,0.278,1.148-0.168,1.479-0.571s6.332-7.085,6.788-7.611c0.733-0.848,2.555-2.427,2.478-4.307c0,0,0.335-5.819,0.395-6.506
		c0.06-0.688,0.71-2.399-0.629-2.999c-1.542-0.689-2.872-1.023-4.079-1.462"/>
	<path fill="none" stroke="#A7A9AC" d="M41.35,21.985c-0.249-0.178-0.444-0.318-0.569-0.41c-1.752-1.291-2.962-0.41-3.908,0.621
		c-1.149,1.251-6.001,6.757-6.458,7.208c-0.916,0.905-0.979,2.367-0.91,3.272c0.07,0.905,2.416,9.164,4.877,10.996
		c2.024,1.507,10.301,0.418,11.763,0c1.462-0.417,1.716-1.058,2.093-2.6c0.942-3.838,2.892-9.907,1.981-11.78
		c-0.609-1.254-4.802-4.376-7.44-6.281"/>
	<path fill="none" stroke="#A7A9AC" d="M42.798,22.985c2.075,1.572,6.002,4.642,6.543,4.966c0.696,0.417,1.989,0.423,2.893,0.075
		c0.904-0.348,9.433-3.425,10.338-3.773c0.904-0.349,1.461-1.274,1.601-2.447c0.14-1.172,0.905-8.481,0.835-9.524
		c-0.069-1.044-0.348-1.323-1.392-1.949c-1.044-0.626-7.188-4.368-8.282-5.011c-2.06-1.208-15.485,3.307-15.538,5.882
		c-0.025,1.208-0.627,6.869-0.389,8.327c0.222,1.359,1.265,2.001,2.027,2.473"/>
</g>
<path fill="#00478C" d="M43.302,22.542c-0.998,0.537-0.835,0.928-0.464,1.67c0.372,0.743,1.3,2.877,2.135,2.877
	c0.835,0,1.068-0.604,0.789-0.881c-0.278-0.278-0.605-0.835-0.883-1.717C44.6,23.61,44.509,21.893,43.302,22.542z"/>
<path fill="#00478C" d="M31.052,3.425c0.748-1.149-18.375,10.208-3.619,34.986c-6.218-9.094-9.001-14.662-7.146-21.994
	c-2.598,8.259-5.382,17.261,10.765,34.616c-6.311-5.662-11.415-11.044-13.271-16.427C24.835,69.5,72.535,72.563,82.279,37.02
	c-2.785,5.567-6.281,10.156-9.837,12.714c6.588-9.095,12.714-16.055,9.188-31.368c-0.372,5.476-1.3,14.292-6.496,20.138
	c3.896-9.094,9.001-19.673,0.464-30.996c2.97,10.022-0.094,27.933-14.106,30.996s-23.394-7.429-23.665-14.94
	c-0.056-1.563-0.141-2.296,1.114-2.506c0.557-0.093,1.763,0.835,2.227,1.021c0.465,0.185,1.207-0.186,1.021-0.928
	c-0.186-0.742,0-1.856,0.464-1.763c0.464,0.093,0.278,1.113,0.464,1.485c0.186,0.371,1.021,0.928,1.763-0.372
	s0.443-5.337-1.856-6.403c-3.805-1.763-6.415-0.063-8.074,1.578c-2.332,2.308-3.712,9.836-1.207,14.912
	c2.124,4.303,6.867,11.536,6.589,13.207c-1.114-0.928-3.526-4.641-4.269-5.196C35.321,38.04,17.782,23.841,31.052,3.425z"/>
</svg>
