<svg xmlns="http://www.w3.org/2000/svg" xmlns:xlink="http://www.w3.org/1999/xlink" viewBox="0 0 165 70"><defs><style>.cls-1,.cls-4{fill:none;}.cls-2,.cls-4{stroke:#a8aaad;}.cls-2{fill:url(#radial-gradient);}.cls-3{fill:#595a5c;}.cls-5{fill:#144a8a;}</style><radialGradient id="radial-gradient" cx="163.58" cy="244.15" r="42.85" gradientTransform="matrix(0.69, 0, 0, -0.69, -72.22, 201.86)" gradientUnits="userSpaceOnUse"><stop offset="0" stop-color="#fff"/><stop offset="1" stop-color="#e9e9e9"/></radialGradient></defs><g id="Layer_2" data-name="Layer 2"><g id="Layer_1-2" data-name="Layer 1"><rect class="cls-1" width="165" height="70"/><circle class="cls-2" cx="40.06" cy="34.28" r="29.42"/><path class="cls-3" d="M95.07,35.64a21.93,21.93,0,0,1-5.4.8c-5.81,0-7.35-3.25-7.35-8.62,0-5.81,1.8-8.62,7.25-8.62a30.46,30.46,0,0,1,4.74.42L94,23.2a22.38,22.38,0,0,0-4.18-.46c-2.3,0-3.3.73-3.3,5.11,0,2.66.42,3.78,1.13,4.39a2.87,2.87,0,0,0,2.17.64,6.65,6.65,0,0,0,1.2-.13V27.92h4v7.72Z"/><path class="cls-3" d="M104.4,31.58c0,1.86-.22,3.23-1,4s-1.86.85-3.64.85a16.69,16.69,0,0,1-3.59-.34l.22-3.52a17.76,17.76,0,0,0,3,.32c.75,0,.83-.37.83-1.34l0-12.17h4.11Z"/><path class="cls-3" d="M118.9,34.85c-1.1,1.1-2.71,1.59-5,1.59a9.08,9.08,0,0,1-3.74-.66L109,37.69h-2.15l1.78-3c-1.27-1.39-1.71-3.64-1.71-6.84,0-3.37.49-5.69,1.88-7.09,1.1-1.09,2.74-1.56,5.06-1.56a9.44,9.44,0,0,1,3.47.54l1-1.76h2.15l-1.63,2.79h0c1.39,1.39,1.88,3.68,1.88,7.05S120.3,33.46,118.9,34.85Zm-5.05-12.11c-2.15,0-2.76.42-2.76,5.08a24.49,24.49,0,0,0,.09,2.47L115.43,23A3.76,3.76,0,0,0,113.85,22.74Zm2.63,2.12L112,32.51a2.92,2.92,0,0,0,1.81.37c2.15,0,2.78-.42,2.78-5.11A22.19,22.19,0,0,0,116.48,24.86Z"/><path class="cls-3" d="M131.65,36.3H127L122.2,19.39h4.42l2.25,9.26.51,3.1h.05l.51-3.12,2.15-9.26,4.35,0Z"/><path class="cls-3" d="M138.44,36.22V19.39h4.15V36.22Z"/><path class="cls-3" d="M153.92,36.22l-3-6.06h-.05L149.75,32l0,4.22h-4V19.39h4l0,5.72h0l3.33-5.72h4.66l-4.54,7.21,5.25,9.62Z"/><path class="cls-3" d="M87.91,53.25v-4.5H83.55v4.5H82.4V43.47h1.15V47.7h4.36V43.47h1.15v9.78Z"/><path class="cls-3" d="M94.74,53.25l-.09-.37h0a3.81,3.81,0,0,1-2,.51,1.76,1.76,0,0,1-1.93-1.83,1.81,1.81,0,0,1,.92-1.79,8.37,8.37,0,0,1,2.94-.41V48.28c0-.62-.43-.89-1.2-.89a7.42,7.42,0,0,0-2.07.36l-.07-1a8.55,8.55,0,0,1,2.24-.24c1.25,0,2.16.41,2.16,1.65v5.12Zm-.24-3a6.45,6.45,0,0,0-2.36.35,1,1,0,0,0-.4,1c0,.49.3.9,1,.9A3.13,3.13,0,0,0,94.5,52V50.23Zm-1.11-4.6a1,1,0,0,1-1-1,1,1,0,0,1,1-1,1,1,0,0,1,1,1A1,1,0,0,1,93.39,45.63Zm0-1.48a.45.45,0,1,0,.45.45A.45.45,0,0,0,93.39,44.15Z"/><path class="cls-3" d="M102.37,53.25h-1.08V48.31a.89.89,0,0,0-.9-.88,4,4,0,0,0-2.1.53v5.29H97.21V46.61H98l.09.4h0a4.51,4.51,0,0,1,2.34-.54,1.66,1.66,0,0,1,1.87,1.65Z"/><path class="cls-3" d="M108.28,53.25l-.1-.4h-.05a3.73,3.73,0,0,1-2,.53c-1.74,0-2.44-1.08-2.44-3.43,0-2.5.81-3.47,2.74-3.47a4,4,0,0,1,1.53.26h0V43h1.08V53.25ZM108,47.77a3.52,3.52,0,0,0-1.56-.32c-1.09,0-1.63.5-1.63,2.5,0,1.84.41,2.44,1.39,2.44a3.74,3.74,0,0,0,1.8-.46V47.77Z"/><path class="cls-3" d="M113.88,53.38a3.9,3.9,0,0,1-2-.53h0l-.11.4h-.83V43H112V47h0a3.82,3.82,0,0,1,1.84-.48c1.75,0,2.45,1.11,2.45,3.46C116.34,51.56,115.85,53.38,113.88,53.38Zm0-5.92A3.53,3.53,0,0,0,112,48v3.91a3.83,3.83,0,0,0,1.82.46c1.25,0,1.39-1.54,1.39-2.46C115.23,48.09,114.85,47.46,113.88,47.46Z"/><path class="cls-3" d="M121.5,53.25l-.08-.37h0a3.81,3.81,0,0,1-2,.51,1.76,1.76,0,0,1-1.93-1.83,1.81,1.81,0,0,1,.92-1.79,8.41,8.41,0,0,1,2.94-.41V48.28c0-.62-.42-.89-1.19-.89a7.42,7.42,0,0,0-2.07.36l-.07-1a8.5,8.5,0,0,1,2.24-.24c1.25,0,2.15.41,2.15,1.65v5.12Zm-.24-3a6.48,6.48,0,0,0-2.36.35,1,1,0,0,0-.39,1,.87.87,0,0,0,1,.9,3.13,3.13,0,0,0,1.75-.48Z"/><path class="cls-3" d="M124.06,53.25V43h1.09V53.25Z"/><path class="cls-3" d="M127,53.25V43h1.1V53.25Z"/><path class="cls-3" d="M133.8,53.25l-1.61-2.91L132,50h0l-.89,1.11v2.17H130V43h1.1v6.46h0l.27-.35,2-2.53h1.33l-2,2.47,2.3,4.17Z"/><path class="cls-3" d="M136.07,53.25V43h1.1V53.25Z"/><path class="cls-3" d="M143.23,53.25l-.1-.4h0a4.61,4.61,0,0,1-2.34.54,1.66,1.66,0,0,1-1.87-1.65V46.61H140v4.94a.9.9,0,0,0,.93.88A3.89,3.89,0,0,0,143,51.9V46.61h1.08v6.64Z"/><path class="cls-3" d="M148.76,53.38a3.9,3.9,0,0,1-2-.53h0l-.11.4h-.83V43h1.1V47h0a3.85,3.85,0,0,1,1.85-.48c1.74,0,2.44,1.11,2.44,3.46C151.22,51.56,150.73,53.38,148.76,53.38Zm0-5.92a3.56,3.56,0,0,0-1.86.56v3.91a3.83,3.83,0,0,0,1.82.46c1.25,0,1.39-1.54,1.39-2.46C150.11,48.09,149.73,47.46,148.76,47.46Z"/><path class="cls-3" d="M155.64,53.38a3.92,3.92,0,0,1-2-.53h0l-.11.4h-.82V43h1.09V47h0a3.85,3.85,0,0,1,1.85-.48c1.75,0,2.44,1.11,2.44,3.46C158.1,51.56,157.62,53.38,155.64,53.38Zm0-5.92a3.49,3.49,0,0,0-1.85.56v3.91a3.79,3.79,0,0,0,1.81.46c1.25,0,1.39-1.54,1.39-2.46C157,48.09,156.61,47.46,155.64,47.46Z"/><path class="cls-4" d="M53.74,27.47c.8.73,7.31,7,7.93,7.65a3.19,3.19,0,0,1,.56,2.37c0,.84-1.88,9.33-2.79,10.65s-8.83,5.29-11.13,5.78-2.79.06-3.9-.56-6.12-5.34-6.89-6-.82-1.71-.49-3.07,2-9.13,2.23-10,.76-3,1.7-3.39l9.4-3.42C51.3,27.12,52.91,26.71,53.74,27.47Z"/><path class="cls-4" d="M20.69,56.42A8.25,8.25,0,0,1,20.82,53c.34-1.18,1.53-4.1,1.74-4.66s1.16-.91,2.36-1,9.47-.49,10.09-.49a3.81,3.81,0,0,1,2.51.49c.69.61,7.1,6.48,7.45,6.75a1.88,1.88,0,0,1,.48,2.15c-.41,1-3.64,6.93-4.41,7.42"/><path class="cls-4" d="M10.71,32.32c.37-.4.79-1.35,1.89-.95s3.5,1.42,4.29,1.69,1.23,1.88,1.34,2.48S19.52,40.3,20,41.45a26,26,0,0,0,1.79,3.65c.43.59,1.21,2.1.76,3.25s-1.65,4.29-1.87,5.1-1.41,1.65-1.41,1.65"/><path class="cls-4" d="M23.77,9.79a31.11,31.11,0,0,1,4.08,1.46,5.17,5.17,0,0,0,3.43.24C32.3,11,36.6,9.27,37.57,9a39.06,39.06,0,0,1,4.54-1,1.82,1.82,0,0,0,1.53-1.15,7.68,7.68,0,0,0,.42-1.67c-.14,1-.84,2.3.39,3.22.44.33,6.8,4.1,7.6,4.6a2.43,2.43,0,0,0,2.67,0c1-.55,3.72-1.7,3.72-1.7s-2.06.84-3.24,1.39a3.07,3.07,0,0,0-1.46,2.93c0,1.32-.63,7.14-.76,8.34s.26,3.19.76,3.49,6.19,5.92,7.1,6.81,1.67.5,2.43,0,5.11-4.23,5.81-4.86"/><path class="cls-4" d="M68.49,29.9c-1,1-4.34,3.8-4.95,4.2s-1.18,2.45-1.31,3.39-1.91,8.39-2.1,9a5,5,0,0,0,.21,3.14c.49.73,2.42,3.39,2.42,3.39S60.42,49.67,60,49.11s-1-.51-2.23.34a94.77,94.77,0,0,1-10.09,4.68,4.25,4.25,0,0,0-2.47,2.69"/><path class="cls-4" d="M12,25.48c-.07.69-1.13,5.28.61,5.89,1.33.47,4.18,1.6,4.73,1.87s1.15-.16,1.48-.57,6.34-7.08,6.79-7.61c.73-.85,2.56-2.42,2.48-4.3,0,0,.33-5.82.39-6.51s.71-2.4-.62-3c-1.55-.69-2.88-1-4.08-1.46"/><path class="cls-4" d="M30.08,24.85l-.57-.41c-1.75-1.29-3-.41-3.91.62-1.15,1.25-6,6.76-6.46,7.21a4.24,4.24,0,0,0-.91,3.27c.07.91,2.42,9.17,4.88,11,2,1.51,10.3.42,11.76,0s1.72-1.06,2.1-2.6c.94-3.84,2.89-9.91,2-11.78-.61-1.26-4.8-4.38-7.44-6.28"/><path class="cls-4" d="M31.53,25.85c2.07,1.57,6,4.64,6.54,5a3.78,3.78,0,0,0,2.89.07c.91-.35,9.44-3.42,10.34-3.77a2.81,2.81,0,0,0,1.6-2.45c.14-1.17.91-8.48.84-9.52s-.35-1.32-1.4-2-7.18-4.37-8.28-5C42,7,28.58,11.5,28.52,14.07c0,1.21-.62,6.87-.38,8.33a3.62,3.62,0,0,0,2,2.47"/><path class="cls-5" d="M32,25.41c-1,.54-.83.93-.46,1.67S32.87,30,33.7,30s1.07-.61.79-.89a4.28,4.28,0,0,1-.88-1.71C33.33,26.48,33.24,24.76,32,25.41Z"/><path class="cls-5" d="M19.78,6.29c.75-1.15-18.37,10.21-3.62,35-6.22-9.1-9-14.66-7.14-22C6.42,27.54,3.63,36.54,19.78,53.9c-6.31-5.66-11.41-11-13.27-16.43,7.05,34.9,54.75,38,64.5,2.42C68.22,45.45,64.73,50,61.17,52.6c6.59-9.09,12.71-16.05,9.19-31.37-.37,5.48-1.3,14.29-6.5,20.14,3.9-9.09,9-19.67.47-31,3,10-.1,27.94-14.11,31S26.83,33.94,26.56,26.43c-.06-1.56-.15-2.3,1.11-2.51.56-.09,1.76.84,2.23,1a.78.78,0,0,0,1-.93c-.19-.74,0-1.86.46-1.77s.28,1.12.47,1.49,1,.93,1.76-.37S34.05,18,31.75,17c-3.8-1.76-6.41-.06-8.07,1.58-2.33,2.31-3.71,9.84-1.21,14.91C24.6,37.76,29.34,45,29.06,46.66,28,45.73,25.53,42,24.79,41.47S6.51,26.71,19.78,6.29Z"/></g></g></svg>