<svg xmlns="http://www.w3.org/2000/svg" viewBox="0 0 30 30"><defs><style>.cls-1{fill:#fff;}.cls-2{fill:#1d1d1b;}</style></defs><title>menu-cross_1</title><g id="Layer_2" data-name="Layer 2"><g id="Layer_1-2" data-name="Layer 1"><rect class="cls-1" width="30" height="30"/><path class="cls-2" d="M17.47,15,24,8.51A1.76,1.76,0,0,0,24,6a1.76,1.76,0,0,0-2.48,0L15,12.53,8.51,6A1.76,1.76,0,0,0,6,6,1.76,1.76,0,0,0,6,8.51L12.53,15,6,21.49A1.76,1.76,0,0,0,6,24a1.76,1.76,0,0,0,2.48,0L15,17.47,21.49,24A1.75,1.75,0,0,0,24,21.49Z"/></g></g></svg>